<svg xmlns="http://www.w3.org/2000/svg" viewBox="0 0 300.42 91.96"><defs><style>.cls-1,.cls-2{fill:none;stroke-miterlimit:10;}.cls-1{stroke:#000;stroke-width:1.99px;}.cls-2{stroke:#0086aa;stroke-width:2px;}.cls-3{fill:#0086aa;}</style></defs><title>7_21</title><g id="レイヤー_2" data-name="レイヤー 2"><g id="公開プレゼンテーション"><path class="cls-1" d="M28.26,91,64.73,18.81A11.3,11.3,0,0,0,54.64,2.41H1V1H73.2V5.94a3.24,3.24,0,0,1-.48,1.76L30.8,91Z"/><rect class="cls-1" x="85.06" y="85.67" width="7.05" height="4.47"/><path class="cls-1" d="M118.76,90.14V44.63h56.91A11.3,11.3,0,0,0,187,33.33V13.71a11.3,11.3,0,0,0-11.3-11.3H118.88V1h69.85V45.68H131.82A11.29,11.29,0,0,0,120.52,57V77.43a11.3,11.3,0,0,0,11.3,11.3h57v1.41Z"/><path class="cls-1" d="M238,91V13.83a11.3,11.3,0,0,0-11.3-11.31H215.49V1h24.75V91Z"/><circle class="cls-2" cx="280.49" cy="70.71" r="18.93"/><path class="cls-3" d="M288.75,78.53H272.13c-.17,0-.26-.08-.26-.27V77.13c0-.19.07-.28.26-.28h7.4V68.34h-6.88c-.19,0-.29-.08-.29-.27V66.94a.24.24,0,0,1,.27-.26h6.9V61.9a.24.24,0,0,1,.27-.27h1.3c.17,0,.27.12.27.31v4.74h6.88a.24.24,0,0,1,.27.26v1.13c0,.19-.08.27-.29.27h-6.86v8.51h7.38a.25.25,0,0,1,.28.28v1.13A.25.25,0,0,1,288.75,78.53Z"/></g></g></svg>