<svg xmlns="http://www.w3.org/2000/svg" viewBox="0 0 630.83 1497.78"><defs><style>.cls-1,.cls-2{fill:none;stroke-miterlimit:10;stroke-width:2.36px;}.cls-1{stroke:#000;}.cls-2{stroke:#0086aa;}</style></defs><title>アセット 3</title><g id="レイヤー_2" data-name="レイヤー 2"><g id="logo"><path class="cls-1" d="M391.93,249.08,392,11V249.08Zm72.66-4.41v-19.5a19.63,19.63,0,0,0,19.64,19.5h95.26a19.64,19.64,0,0,0,19.64-19.46v15.34a20,20,0,0,0,0,4.09v0Zm134.54-81.74a19.64,19.64,0,0,0-19.64-19.52H484.23a19.64,19.64,0,0,0-19.64,19.47V143.41h114.9a19.65,19.65,0,0,0,19.64-19.52,19.64,19.64,0,0,0,19.64,19.52h0A19.64,19.64,0,0,0,599.13,162.93Zm0-115a19.65,19.65,0,0,0-19.64-19.52h0A19.65,19.65,0,0,0,599.13,8.9a19.64,19.64,0,0,0,19.64,19.52h0A19.64,19.64,0,0,0,599.13,47.94Z"/><path class="cls-1" d="M391.09,250V10.1h1.73V250Zm72.63-4.41v-103h114.9a19.64,19.64,0,0,0,19.64-19.64v-74a19.64,19.64,0,0,0-19.64-19.64H459.68V27.55H578.62A19.64,19.64,0,0,0,598.26,7.91V2.22H600V7.91a19.64,19.64,0,0,0,19.64,19.64h3.45v1.74h-3.45A19.64,19.64,0,0,0,600,48.93v74a19.64,19.64,0,0,0,19.64,19.64h3.45v1.73h-3.45A19.64,19.64,0,0,0,600,163.92v81.62Zm21.37-101.27a19.65,19.65,0,0,0-19.64,19.65v60.24a19.65,19.65,0,0,0,19.64,19.65h93.53a19.64,19.64,0,0,0,19.64-19.65V163.92a19.64,19.64,0,0,0-19.64-19.65Z"/><path class="cls-1" d="M402.29,578.9V502.25H404v55.28a19.64,19.64,0,0,0,19.64,19.64H611.9v1.73ZM610.17,433.61V378.33a19.64,19.64,0,0,0-19.65-19.64H402.29V357H611.9v76.66Z"/><path class="cls-1" d="M443,1263.11V1061.5a19.65,19.65,0,0,0-19.64-19.64H384.53v-1.73H629.65v1.73H464.37a19.64,19.64,0,0,0-19.64,19.64v180.23a19.64,19.64,0,0,0,19.64,19.64H611.9v1.74Z"/><path class="cls-1" d="M128.91,258v-82.7a19.65,19.65,0,0,0-32.42-14.92L2.79,240.59l-1.13-1.31,85.4-73.11a19.64,19.64,0,0,0-12.78-34.56H2v-1.74H109.27a19.64,19.64,0,0,0,19.64-19.64V48.8a19.65,19.65,0,0,0-19.64-19.65H2V27.42H109.27A19.64,19.64,0,0,0,128.91,7.78V1.18h1.73v6.6a19.64,19.64,0,0,0,19.64,19.64H257.53v1.73H150.28A19.65,19.65,0,0,0,130.64,48.8v61.43a19.64,19.64,0,0,0,19.64,19.64H257.53v1.74H185.27a19.64,19.64,0,0,0-12.78,34.56l85.4,73.11-1.13,1.31-93.7-80.22a19.65,19.65,0,0,0-32.42,14.92V258Z"/><path class="cls-1" d="M128.91,599.84V527.13a19.65,19.65,0,0,0-31.74-15.48L2.73,585.46,1.67,584.1l80.66-63a19.64,19.64,0,0,0-12.1-35.12H2v-1.73H17.1a19.64,19.64,0,0,0,19.64-19.65V402.5q.46-.58.87-1.2c.27.41.57.82.87,1.21v62.05a19.65,19.65,0,0,0,19.65,19.65h51.15a19.65,19.65,0,0,0,19.64-19.65V390.38a19.64,19.64,0,0,0-19.64-19.64H53.93a19.65,19.65,0,0,0-16.32,8.71,19.64,19.64,0,0,0-16.33-8.71H19.12V369h90.15a19.65,19.65,0,0,0,19.64-19.65V343h1.73v6.34A19.65,19.65,0,0,0,150.28,369h90.15v1.73H239.1a19.68,19.68,0,0,0-16.33,8.71,19.66,19.66,0,0,0-16.33-8.71H150.28a19.64,19.64,0,0,0-19.64,19.64v74.18a19.65,19.65,0,0,0,19.64,19.65h52a19.64,19.64,0,0,0,19.64-19.65V402.5q.47-.58.87-1.2c.28.41.57.82.88,1.21v62.05a19.64,19.64,0,0,0,19.64,19.65h14.25v1.73H189.32a19.64,19.64,0,0,0-12.1,35.12l80.66,63-1.06,1.36-94.44-73.81a19.64,19.64,0,0,0-31.74,15.48v72.71Z"/><path class="cls-1" d="M166.48,871.28a19.62,19.62,0,0,0-13.89-5.76H114a19.64,19.64,0,0,0-19.64,19.64V924.7A19.64,19.64,0,0,0,114,944.34h35.87v1.74H43.37c-.14-.43-.29-.85-.46-1.26l.46-.47H73A19.64,19.64,0,0,0,92.6,924.7V885.16A19.65,19.65,0,0,0,73,865.52H38a19.65,19.65,0,0,0-19.28,15.86l-9,45.74a19.63,19.63,0,0,0,1.09,11.21A19.69,19.69,0,0,0,6,946.25l-1.7-.36,15.59-79.45a19.92,19.92,0,0,0,.36-3.78V695.76h235V753.5H233.5a19.64,19.64,0,0,0-19.64,19.64v15a19.64,19.64,0,0,0,19.64,19.64h21.73v1.73H233.5a19.65,19.65,0,0,0-19.64,19.64v15a19.64,19.64,0,0,0,19.64,19.64h21.73v1.73a19.66,19.66,0,0,0-4.07,26.7L234.39,909a19.65,19.65,0,0,0,0,27.78L250.6,953l-1.22,1.22Zm44.12-5.76a19.64,19.64,0,0,0-13.89,33.53l8.68,8.68a19.62,19.62,0,0,0,27.77,0l8.68-8.68A19.64,19.64,0,0,0,228,865.52Zm-49.49-2.09a19.3,19.3,0,0,0,3.72.36h27.66a19.64,19.64,0,0,0,19.64-19.64v-15a19.64,19.64,0,0,0-19.64-19.64H122.42a19.65,19.65,0,0,0-19.64,19.64v15a19.64,19.64,0,0,0,19.64,19.64h34.92a19.48,19.48,0,0,0,3.73-.36h0ZM41.65,809.51A19.64,19.64,0,0,0,22,829.15v15a19.64,19.64,0,0,0,19.64,19.64H81.41a19.64,19.64,0,0,0,19.64-19.64v-15a19.64,19.64,0,0,0-19.64-19.64Zm80.77-56a19.64,19.64,0,0,0-19.64,19.64v15a19.64,19.64,0,0,0,19.64,19.64h70.07a19.64,19.64,0,0,0,19.64-19.64v-15a19.64,19.64,0,0,0-19.64-19.64Zm-80.77,0A19.64,19.64,0,0,0,22,773.14v15a19.64,19.64,0,0,0,19.64,19.64H81.41a19.64,19.64,0,0,0,19.64-19.64v-15A19.64,19.64,0,0,0,81.41,753.5Zm0-56A19.64,19.64,0,0,0,22,717.13v15a19.64,19.64,0,0,0,19.64,19.64h192.2a19.64,19.64,0,0,0,19.64-19.64v-15a19.64,19.64,0,0,0-19.64-19.64Z"/><path class="cls-1" d="M481.84,932V874.63h1.73v36a19.64,19.64,0,0,0,19.64,19.64H623.89V932Zm-74.93,0V738.8a19.64,19.64,0,0,0-19.64-19.64h-6.34v-1.74h6.34a19.64,19.64,0,0,0,19.64-19.64V687.54h1.73v10.24a19.64,19.64,0,0,0,19.65,19.64H560.7c.41.31.84.59,1.26.86-.43.27-.85.57-1.27.88H428.29a19.64,19.64,0,0,0-19.65,19.64V932Zm71.68-133.7v-1.74h145.3v1.74Zm104.34-80.2,11.75-7.85a19.62,19.62,0,0,0,8.73-16.33v-3.18h20.48l-11.75,7.85a19.64,19.64,0,0,0-8.73,16.33v3.18Z"/><path d="M336.63,14.38c-.11.25-.36.33-.8.33a44.87,44.87,0,0,1-10.26,14.73,8.71,8.71,0,0,0-1.49-1.16,40.11,40.11,0,0,0,10.15-14.7Zm3.79,12a1,1,0,0,1-.84.4,157.5,157.5,0,0,1-7.1,15.28c5.5-.18,12.16-.4,18.59-.66-1.89-2.58-4.11-5.38-6.14-7.67l1.63-.77a88.69,88.69,0,0,1,9.32,12.15l-1.71,1a34.44,34.44,0,0,0-2-3.17c-9.39.47-19.39.91-25.54,1.13,0,.29-.25.44-.54.51l-.77-2.33c1.49,0,3.24-.07,5.17-.14a121.34,121.34,0,0,0,7.42-16.45Zm6-12.88A60.16,60.16,0,0,0,357.4,28a9.54,9.54,0,0,0-1.49,1.49,81.06,81.06,0,0,1-11.13-15.21Z"/><path d="M324.12,93.42H357v1.74H324.12ZM356,71v1.75H325.39V71h14.12V63.26l2.47.18c0,.22-.22.4-.66.44V71Zm-23.89,4a55.35,55.35,0,0,1,3.63,15.79,15,15,0,0,0-1.82.32,55,55,0,0,0-3.49-15.71Zm19.27.25a.91.91,0,0,1-.83.48,128.08,128.08,0,0,1-4.91,16.51l-1.57-.43a114.07,114.07,0,0,0,4.62-17.14Z"/><path d="M327.43,145.79c-1.2-2.58-1.64-7.71-1.64-12.44a92.51,92.51,0,0,1,2-17.17l2.76.58a.88.88,0,0,1-.94.62,72.93,72.93,0,0,0-2,16,43.4,43.4,0,0,0,.36,7.27c.91-2.47,2.51-6.14,3.31-8l1.39,1c-1.24,2.69-3.9,8.47-3.9,10.08a4.92,4.92,0,0,0,.44,1.78Zm9.06-21.1c3.2,0,6.36,0,9.56-.11-.14-3.24-.25-6-.32-8.73l2.91.11c0,.36-.37.65-.91.76,0,2.33.11,4.77.18,7.72a30.74,30.74,0,0,0,7.46-1.53l.29,1.85a31.59,31.59,0,0,1-7.64,1.42c.14,4.33.36,8.88.47,11.21a28.26,28.26,0,0,1,7.64,4.76L355,143.82a22.37,22.37,0,0,0-6.47-4.4c.07,3.39-.44,7-5.75,7-4.18,0-7.06-1.89-7.06-5.06,0-3.63,3.79-5.13,7.06-5.13a14,14,0,0,1,3.86.59l-.51-10.44c-1.17.07-2.8.14-3.9.14h-5.74Zm10.25,13.9a12.17,12.17,0,0,0-4-.73c-2.36,0-5.35.84-5.35,3.42,0,2.25,2.4,3.38,5.35,3.38s4-1.38,4-4.73C346.78,139.64,346.78,139,346.74,138.59Z"/><path d="M352.56,194.85a64.9,64.9,0,0,1-11.16.87,35.48,35.48,0,0,1-6.91-.47c-4.3-.91-6.15-3.6-6.15-6.77,0-2.69,1.53-5.52,3.75-7.78l1.52.87a10.52,10.52,0,0,0-3.38,6.91c0,2.26,1.49,4.26,4.84,5a31,31,0,0,0,6,.43,62.08,62.08,0,0,0,11.31-1ZM336.7,176.7a46.53,46.53,0,0,1,7.1-4.58v0c-3.09.36-9.86.47-14.19.47l0-1.85c4,.07,11.21-.11,14.56-.37a40.18,40.18,0,0,0,6-.83l.33,1.92c-5.2.73-11.49,5.68-12.37,6.37Z"/><path d="M336.81,217a1.15,1.15,0,0,1-1.09.69c-.25,1.71-.58,3.67-.94,6.07a41.56,41.56,0,0,0,10.8-2.11l.51,1.82a46.13,46.13,0,0,1-11.64,2.19c-1.53,8.58-3.75,16.87-6.77,23l-1.85-.73c3-5.89,5.2-13.64,6.65-22.19-.65,0-1.38,0-2,0h-4.94l0-1.85c.59,0,1.35,0,2.19,0,.65,0,4,0,5.05,0,.37-2.4.73-5,1-7.24Zm19,30.88c-1.49.15-3.05.22-4.62.22a28.36,28.36,0,0,1-7.6-.8,4.88,4.88,0,0,1-3.75-4.8,8.45,8.45,0,0,1,2.26-5.28l1.53.8a7.32,7.32,0,0,0-2,4.33c0,3.13,3.2,3.93,9.17,3.93a42.49,42.49,0,0,0,4.87-.29Zm-1.09-17.09a40,40,0,0,0-12.8,1.7l-.51-1.63a44.44,44.44,0,0,1,13.31-1.89Zm-2.8-6.63a25.4,25.4,0,0,0-5-5l.95-.9a26.81,26.81,0,0,1,5.16,5Zm4.55-2.51a26.61,26.61,0,0,0-5.06-5l1-.95a24.8,24.8,0,0,1,5.13,5Z"/><path d="M325.35,272c1.1,0,2.33-.08,3.42-.15,2.88-.25,22.23-1.64,26.41-1.6l0,2c-.51,0-1-.07-1.53-.07a10.62,10.62,0,0,0-5.93,1.71c-5.93,3.49-11.31,9.64-11.31,14.51,0,5.42,3.53,8.66,12.88,10l-.8,1.82c-10.37-1.53-14.12-5.24-14.12-11.75,0-5.38,5.39-11.79,12.48-16.08-3.78.22-15.35,1.09-20.55,1.56a1.17,1.17,0,0,1-.77.55Z"/><path d="M356.71,335.13H342.78a37.9,37.9,0,0,0,14.77,12.47,8.85,8.85,0,0,0-1.31,1.49,42.65,42.65,0,0,1-14.88-13.2v15.57h-1.82V336.11a41.52,41.52,0,0,1-14.62,13.06,8.32,8.32,0,0,0-1.31-1.49,37.78,37.78,0,0,0,14.59-12.55H324.45v-1.75h15.09V326H327.06v-1.79h12.48v-6.33l2.48.19c0,.21-.22.4-.66.43v5.71h12.88V326H341.36v7.38h15.35Z"/><path d="M356.89,387.06H343a39.14,39.14,0,0,0,14.63,12,9.13,9.13,0,0,0-1.31,1.53,43.08,43.08,0,0,1-15-13.06v14.81h-1.82V387.72a42.83,42.83,0,0,1-14.73,12.8,7.41,7.41,0,0,0-1.31-1.49,38.33,38.33,0,0,0,14.44-12H324.23v-1.74h15.35V375.24H326v-1.75h13.57V368.8L342,369c0,.22-.22.4-.62.44v4.07h13.89v1.75H341.4v10.08h15.49Zm-24-2.51a29.14,29.14,0,0,0-3.6-7.35l1.56-.58a28.69,28.69,0,0,1,3.72,7.24Zm19.83-7.31a.74.74,0,0,1-.73.29,54.7,54.7,0,0,1-4.15,7.2s-1.45-.65-1.49-.65a48.59,48.59,0,0,0,4.11-7.71Z"/><path d="M356.75,432.49H342.16c2.44,9.13,7.31,16.18,15.13,19.13a6.74,6.74,0,0,0-1.34,1.67c-7.86-3.31-12.73-10.36-15.35-19.82-1.53,7.64-5.42,15.57-15.39,19.82a6.68,6.68,0,0,0-1.27-1.41c9.85-4,13.57-11.83,14.95-19.39H324.45V430.7h14.73a75.38,75.38,0,0,0,.58-11l2.58.14c0,.33-.25.48-.72.55a84.21,84.21,0,0,1-.55,10.29h15.68Z"/><path d="M356.86,492.28V494H341.4v7.9c0,1.31-.37,1.89-1.53,2.22a34.46,34.46,0,0,1-6.62.29,8.4,8.4,0,0,0-.8-1.75c1.56,0,2.94.07,4,.07,3,0,3.16,0,3.16-.83V494H324.37v-1.67h15.24v-3.42l1.46.11a31.69,31.69,0,0,0,6.33-3.89H330.27v-1.64h19.09l.37-.11,1.38.95a.63.63,0,0,1-.44.22,38.14,38.14,0,0,1-9.27,5.89v1.89Zm-29.8-13.68v6.11h-1.71v-7.78h6a25.79,25.79,0,0,0-3.49-5.13l1.49-.69a24.08,24.08,0,0,1,3.67,5.27l-1,.55h8.44a26,26,0,0,0-3-5.93l1.53-.55a24.46,24.46,0,0,1,3.13,5.93l-1.28.55h6.88a46.86,46.86,0,0,0,4.51-6.11,12,12,0,0,1,2.07,1,.59.59,0,0,1-.65.25,57.73,57.73,0,0,1-3.9,4.88h6.33v7.78h-1.74V478.6Z"/><path d="M284.17,19.62c0,3.16-.61,7.13-2.07,9.42a9.84,9.84,0,0,0-1.38-.76c1.31-2.08,1.89-5.83,2-8.88Zm2,26.3V12.34l2.36.15c0,.22-.18.4-.62.43v33Zm5.38-22A33.44,33.44,0,0,0,289,18.56l1.27-.65A31.24,31.24,0,0,1,292.87,23Zm12.19.8h10.55v1.56H291.78V24.71h10.11V21.65h-7.38V20.13h7.38v-2.8h-8.84V15.8h8.84V12.34l2.47.18c0,.22-.21.37-.65.4V15.8H313v1.53h-9.28v2.8h7.82v1.52h-7.82Zm7.09,4.37V43.84c0,2.11-1.13,2.11-5.64,2.11a10.36,10.36,0,0,0-.58-1.56c.95,0,1.78,0,2.44,0,1.93,0,2,0,2-.59V40h-12.3v6H295V29.08Zm-1.74,1.56h-12.3v3.13h12.3Zm-12.3,7.86h12.3V35.22h-12.3Z"/><path d="M290.07,68.79v4.55h7.67V75H280.86V73.34h7.53V68.79h-6.14v-1.6h6.14V63.3l2.33.18c0,.22-.22.36-.65.43v3.28h6.11v1.6Zm1.05,12.4a38.75,38.75,0,0,0,2.37-5.67l2,.76c-.07.18-.32.29-.69.29a40.26,40.26,0,0,1-2.43,4.88h4.69v1.63h-7v4.7h6.55v1.6h-6.55v7.56h-1.71V89.38h-6.55v-1.6h6.55v-4.7h-7.1V81.45H291.7ZM285.3,81a22.63,22.63,0,0,0-1.78-5.13l1.45-.4a19.26,19.26,0,0,1,1.82,5Zm26.52-2,1.13.48a.8.8,0,0,1-.22.36,30,30,0,0,1-4.26,10.91,17.25,17.25,0,0,0,5.9,4.59A7.69,7.69,0,0,0,313,96.87a19.53,19.53,0,0,1-5.64-4.65,18.21,18.21,0,0,1-4.69,4.32,7.79,7.79,0,0,0-1.24-1.2,18.51,18.51,0,0,0,4.81-4.58,31.19,31.19,0,0,1-4.44-9l1.49-.4a27.76,27.76,0,0,0,4,7.9,28,28,0,0,0,3.46-8.59H300.54V96.94h-1.71V65.08h13.75V74.5c0,1-.21,1.56-1.05,1.85s-1.6.26-4.91.26a4.72,4.72,0,0,0-.58-1.56c1,0,2,0,2.69,0,2.07,0,2.14,0,2.14-.62V66.75H300.54v12.3h10.95Z"/><path d="M312,129H299.71l.58.15c0,.22-.29.4-.69.43-1,6.88-4,13.46-11.39,17.17a9.83,9.83,0,0,0-1.38-1.34c7.24-3.57,9.93-9.46,10.8-16.41H283.34v-1.82H312Zm-5.31-10H286.47V117.2h20.26Zm.65-4.72a26.37,26.37,0,0,1,4,6l-1.2.77a27,27,0,0,0-4-5.93Zm4-1.39a28.13,28.13,0,0,1,4.15,5.93l-1.27.69a27.13,27.13,0,0,0-4-5.82Z"/><path d="M313.31,176.63h-8v2.76c0,6.77-2,13.93-11.71,18.3a12,12,0,0,0-1.38-1.38c9.56-4.08,11.24-10.88,11.24-16.85v-2.83H290.9V186h-1.85v-9.34h-7.42v-1.82h7.42v-8.12l2.73.19c0,.32-.33.61-.88.65v7.28h12.52v-8.59l2.69.18c0,.29-.29.59-.84.62v7.79h8Zm-5.78-9.14A26.12,26.12,0,0,1,312,173l-1.09.8a27.44,27.44,0,0,0-4.48-5.38Zm3.56-3a26.09,26.09,0,0,1,4.55,5.46l-1.09.83a27.05,27.05,0,0,0-4.47-5.41Z"/><path d="M311.31,219a.73.73,0,0,1-.62.29,3.39,3.39,0,0,1-.43-.07A83,83,0,0,1,299.74,228l.73.4c0,.22-.33.36-.65.43v19.68h-1.93V229.29a106.68,106.68,0,0,1-14.48,8.58,8.21,8.21,0,0,0-1.13-1.45c10.12-4.73,21-12.59,26.92-19Z"/><path d="M284.79,271.08a42.7,42.7,0,0,1,10.92,5l-1,1.6A45.27,45.27,0,0,0,284,272.64Zm.26,25.42c13.09-4.07,21.75-11.35,26.19-21.46a7.79,7.79,0,0,0,1.67,1.06c-4.54,10-13.49,17.75-25.9,21.79a1.57,1.57,0,0,1-.47.8Z"/><path d="M309.78,324v24.45h-1.92v-2H284.32v-1.82h23.54V325.81H284.72V324Z"/><path d="M296.47,370.18l2.91.29c0,.37-.4.59-.95.7v29.75h-2Z"/><path d="M307,424.3a.6.6,0,0,1-.43.33,57.18,57.18,0,0,1-7.46,12.7A134,134,0,0,1,312.84,450l-1.6,1.35a122.11,122.11,0,0,0-13.35-12.59c-3.13,3.93-8.91,9.57-14.41,12.62a9.83,9.83,0,0,0-1.34-1.45c10.4-5.71,18.55-16.59,21.86-24.59H285.63v-1.82H305l.37-.15Z"/><path d="M289.7,477.66a10.19,10.19,0,0,1,8.59-4.08c4.91,0,7.64,3.46,7.64,7.24,0,6-4.48,9.71-11.57,16.26l-2.55,2.22v.07h14.92v1.86H288.5v-1.42l2.91-2.62c7.93-7.2,12.26-10.91,12.26-16.08a5.43,5.43,0,0,0-5.71-5.64c-2.87,0-5,1.42-7,3.61Z"/><path d="M314.19,544.87v1.71h-14v8.59h-1.79v-8.59H281v-1.71h6.22V534.72h11.24v-6.55h-9.82a32.23,32.23,0,0,1-6,7.53,8.32,8.32,0,0,0-1.45-1.09c3.49-3,6.76-8,8.73-13.24l2.32.77c-.07.25-.4.36-.76.32a41.32,41.32,0,0,1-1.86,4h23v1.71H300.22v6.55h11.53v1.71H300.22v8.44Zm-25.21,0h9.45v-8.44H289Z"/><path d="M280.68,598.52c2.88-1.46,7.46-3.93,11.79-6.3l.47,1.6c-3.93,2.26-8.18,4.66-10.77,6.08a.69.69,0,0,1-.32.58Zm1.46-23.14a46.06,46.06,0,0,1,8.76,4.11l-1,1.6a45.61,45.61,0,0,0-8.69-4.33Zm21,5.68a.77.77,0,0,1-.65.36v4.4c0,2.84,1.45,14,12.18,18.66-.36.44-.9,1.17-1.16,1.57a21.72,21.72,0,0,1-11.89-16.12h0c-.47,3.64-3.64,12-13.42,16.12a7.9,7.9,0,0,0-1.13-1.42c12.11-4.84,13.64-15.72,13.6-18.81v-4.76h-5a34,34,0,0,1-4.58,8.84,9.51,9.51,0,0,0-1.53-.91c2.91-3.75,5.35-10.12,6.77-16.55l2.4.61c-.07.26-.33.4-.77.4-.47,2-1,3.93-1.67,5.86h15.83l.32-.14,1.35.9c0,.11-.26.22-.4.26a54.63,54.63,0,0,1-3.2,9.53,14.47,14.47,0,0,0-1.53-.73,44.82,44.82,0,0,0,2.69-8.07Z"/><path d="M281.16,629.65h32.73v1.67H281.16Zm14,5.42v0H296v19.5c0,1.13-.29,1.67-1.12,2a21.68,21.68,0,0,1-5.13.29,6.2,6.2,0,0,0-.66-1.63c.91,0,1.78,0,2.48,0,2.69,0,2.69,0,2.69-.69v-5.89h-8.88v8.36H283.7v-22Zm-.87,1.63h-8.88v4.44h8.88Zm-8.88,10.48h8.88v-4.51h-8.88Zm3.17-23.79a30.26,30.26,0,0,1,4.51,5.2l-1.6.8a29.66,29.66,0,0,0-4.44-5.27Zm12,27.21V635.39l2.36.18c0,.22-.22.4-.62.44V650.6Zm1.6-21.86a36,36,0,0,0,4.18-5.53l2.26.91a.82.82,0,0,1-.73.29,57.58,57.58,0,0,1-4.18,5.05Zm8.8,25.82c0,1.31-.33,1.86-1.27,2.15s-2.8.36-5.71.33a7.56,7.56,0,0,0-.69-1.75c1.27,0,2.4.07,3.31.07,2.43,0,2.61,0,2.61-.8V634.23l2.41.14c0,.22-.22.4-.66.44Z"/><path d="M298.87,697.12v1.63H280.65v-1.63h3.78V681.18h-3.27v-1.63h3.27v-4.84l2.29.18c0,.22-.18.36-.62.44v4.22h8v-4.84l2.33.18c0,.22-.22.36-.62.44v4.22h2.87v1.63h-2.87v15.94Zm-10.58,3.45c-.08.26-.33.33-.7.33a23.86,23.86,0,0,1-5.31,7,7.5,7.5,0,0,0-1.31-1,20.65,20.65,0,0,0,5.13-7Zm5.78-19.39h-8v4.11h8Zm-8,5.64V691h8v-4.18Zm0,5.75v4.55h8v-4.55Zm7.31,7.31a31.13,31.13,0,0,1,3.79,5.57c-.26.14-.55.29-1.49.87a32.32,32.32,0,0,0-3.71-5.68Zm19.72-23.68v29.17c0,2.48-.84,2.62-6.47,2.55a10.33,10.33,0,0,0-.66-1.78c1.31.07,2.51.07,3.38.07,1.82,0,2,0,2-.8V695.19h-9.13c-.44,4.51-1.56,9.31-4.37,12.95a5.9,5.9,0,0,0-1.41-1.09c3.89-5,4.29-12,4.29-17.46V676.2Zm-10.62,13.39c0,1.23,0,2.54-.11,3.92h9v-7h-8.91Zm8.91-11.68h-8.91v6.87h8.91Z"/><path d="M281.63,735.55a27.87,27.87,0,0,1,6.73,3.79l-1,1.49a29,29,0,0,0-6.69-4Zm.07,21.61A125.71,125.71,0,0,0,288.21,745l1.35,1.09a124.84,124.84,0,0,1-6,11.57.76.76,0,0,1,.14.44.64.64,0,0,1-.11.36Zm1.78-31.57a25.86,25.86,0,0,1,6.59,4.11L289,731.15a28.46,28.46,0,0,0-6.55-4.29Zm16.34,27.93c-.11.26-.4.3-.73.26a43.47,43.47,0,0,1-9.2,5.09,8.74,8.74,0,0,0-1.24-1.27,33.39,33.39,0,0,0,9.09-5Zm-6.66-22.44V735h-1.67v-5.53h9.89v-4.29l2.4.18c0,.22-.18.4-.62.44v3.67h10.23V735h-1.75v-3.93Zm-.33,8.51h8.59v-3.31h-7.57v-1.56H311v1.56h-7.82v3.31h8.76v12.19H292.83Zm1.68,1.53v3.78h6.91v-3.78Zm0,5.27v3.86h6.91v-3.86Zm15.67-5.27h-7.05v3.78h7.05Zm0,9.13v-3.86h-7.05v3.86Zm2.88,8.62a61.53,61.53,0,0,0-8.26-5.24l1.24-1a56.8,56.8,0,0,1,8.33,5.09Z"/><path d="M281.12,789.82c2.58-.87,6.4-2.33,10.15-3.78l.33,1.38c-3.42,1.38-6.88,2.8-9.14,3.67a.69.69,0,0,1-.32.55Zm14.48.58c0,2-.84,2-5.6,2a8.12,8.12,0,0,0-.59-1.46c.8,0,1.53,0,2.15,0,2.36,0,2.36,0,2.36-.55V779.71h-12v-1.57H295.6Zm-6.81-5a19.84,19.84,0,0,0-4.94-3.82l1-1a18.51,18.51,0,0,1,5,3.67Zm6,9.2a26.57,26.57,0,0,0,1.75-3.63l2.15.72c-.08.22-.33.33-.66.3a28.55,28.55,0,0,1-1.45,2.61h12.47v15.28h-1.78v-1.52H288v1.52h-1.71V794.58Zm12.48,6v-4.48H288v4.48ZM288,806.77h19.35v-4.66H288Zm20.44-20c-3.56,1.35-7.27,2.77-9.64,3.61a.55.55,0,0,1-.36.54l-.95-1.82c2.69-.87,6.73-2.33,10.66-3.75Zm3.68-8.62v12.33c0,1-.26,1.5-1.06,1.79a18.8,18.8,0,0,1-4.76.25,4.53,4.53,0,0,0-.59-1.45c1,0,1.89,0,2.59,0,2,0,2.11,0,2.11-.62V779.71H298.14v-1.57Zm-11.61,2.4a19.39,19.39,0,0,1,5,3.5l-1.09,1.23a19.1,19.1,0,0,0-5-3.67Z"/><path d="M291.7,845.32l-3.63,1.16v11.75c0,2.37-1.31,2.51-6,2.44a8,8,0,0,0-.66-1.71c.88,0,1.68,0,2.33,0,2.62,0,2.62,0,2.62-.77V847.07l-4.51,1.42a.63.63,0,0,1-.4.54l-.8-2.14c1.56-.41,3.53-.95,5.71-1.61v-8.76H280.9v-1.71h5.42v-7.75l2.37.15c0,.25-.22.4-.62.43v7.17h4.69v1.71h-4.69v8.26l3.42-1Zm18.7-.33,1.17.55a1.15,1.15,0,0,1-.33.33,20.66,20.66,0,0,1-6.88,9.13,27.2,27.2,0,0,0,10.41,4.22,6.46,6.46,0,0,0-1.13,1.52A27.26,27.26,0,0,1,303,856a34.8,34.8,0,0,1-11.17,4.58,6.76,6.76,0,0,0-.88-1.6,31.21,31.21,0,0,0,10.66-4.11,21.58,21.58,0,0,1-5.53-7.71l1.53-.51a19.49,19.49,0,0,0,5.42,7.27,18.76,18.76,0,0,0,6.08-7.27H294.18v-1.6h15.9Zm-3.24-7.13a43,43,0,0,0,4.08-6.69l2.11.84a.9.9,0,0,1-.69.25,52.26,52.26,0,0,1-4.11,6.15h5.34v6.07h-1.71V840H293.89v4.47h-1.68v-6.07h16.23Zm5.46-9.31c-.07.11-.14.11-.62.11-4.36,1.31-12.51,2.29-19.24,2.8a4.65,4.65,0,0,0-.47-1.42c6.58-.54,14.69-1.53,18.8-2.91Zm-16.3,9.31a17.71,17.71,0,0,0-2.29-5.09l1.42-.51a16.3,16.3,0,0,1,2.37,5Zm5.93-.43a17.53,17.53,0,0,0-1.56-5.5l1.53-.36a17.71,17.71,0,0,1,1.63,5.42Z"/><path d="M313.6,902.5H300.36c3.49,3.09,9.13,5.74,14.08,7a6.64,6.64,0,0,0-1.16,1.53c-5.21-1.53-11.35-4.77-14.95-8.41v9h-1.75v-8.84c-3.53,3.56-9.6,6.58-14.73,8.08a9.12,9.12,0,0,0-1.17-1.53,36.13,36.13,0,0,0,13.86-6.8h-13v-1.61h15.06v-3.38H285.05V896h11.53v-3.34H283.19v-1.57H292a17,17,0,0,0-2.15-4.22l1.46-.36H281.7v-1.6h11.35v-7l2.47.19c0,.32-.32.54-.76.58v6.22h5.42v-7l2.47.19c0,.36-.32.54-.76.58v6.22h11.57v1.6h-8.84l1.38.44a.7.7,0,0,1-.69.32,36,36,0,0,1-2.33,3.82h9.17v1.57H298.33V896h12v1.53h-12v3.38H313.6Zm-27.17-24a23.09,23.09,0,0,1,3.35,5.64l-1.57.62A25.22,25.22,0,0,0,284.9,879Zm15,12.33a37.47,37.47,0,0,0,2.29-4.29H291.45a18.11,18.11,0,0,1,2.26,4.26l-1.21.32h9.72ZM311,879.29a.66.66,0,0,1-.69.29,45.08,45.08,0,0,1-3.2,5.31c-.26-.07-1.17-.47-1.42-.58a41.75,41.75,0,0,0,3.16-5.79Z"/><path d="M293.56,935v1.57H280.65V935Zm-11.28,6.48V940h10.3v1.57Zm0,4.87v-1.52h10.3v1.52Zm10.3,3.39v10.51h-8.7v1.82h-1.6V949.78Zm-.18-19.5v1.53h-9.94v-1.53ZM291,951.34h-7.1v7.38H291ZM314.11,950h-7.82a28.9,28.9,0,0,0,8.26,9.14,8.39,8.39,0,0,0-1.27,1.38,33.72,33.72,0,0,1-8.3-9.9v11.86h-1.74V950.9a27.2,27.2,0,0,1-8.95,9.75,6.87,6.87,0,0,0-1.2-1.34,24.45,24.45,0,0,0,9-9.32h-7.93v-1.63h9.13v-3.82h-7.57v-14h17v14H305v3.82h9.13Zm-16.77-17.93v4.66h5.93v-4.66Zm0,6.18V943h5.93v-4.73ZM311,936.72v-4.66h-6.07v4.66Zm0,6.25v-4.73h-6.07V943Z"/><path d="M290.07,1009c3.34,1.64,7.78,2,13,2h11.42a4.89,4.89,0,0,0-.72,1.63h-10.7c-8.66,0-14.8-1-18.3-6.47a16.4,16.4,0,0,1-2.94,7.35,6.43,6.43,0,0,0-1.2-1c2.32-2.77,3.05-8.15,3.23-12.73l2.22.21c0,.26-.25.4-.65.44-.08,1.16-.18,2.4-.33,3.67a10.51,10.51,0,0,0,3.31,4v-10.7h-7.64v-1.52h16.7v1.52h-7.42v4.55h6.8v1.53h-6.8ZM295,981.41v11.21H283.27V981.41Zm-1.7,4.88v-3.42H284.9v3.42Zm0,4.87v-3.45H284.9v3.45Zm10.58,13.14c-.11.18-.36.25-.69.25a25.24,25.24,0,0,1-6.55,4.87,6.82,6.82,0,0,0-1.13-1.16,19.16,19.16,0,0,0,6.33-4.73Zm-5-17.54h4.48c.36-1,.72-2.36,1-3.49h-7.2v-1.53H314v1.53h-7.93c-.29,1-.72,2.36-1.16,3.49h7.24v16H298.87Zm11.61,4.8v-3.34h-10v3.34Zm0,4.84V993h-10v3.38Zm0,4.88v-3.42h-10v3.42Zm2.25,8a38.19,38.19,0,0,0-5.71-4.76l1.24-.77a43.36,43.36,0,0,1,6,4.7Z"/><path d="M286.18,1042.66a43,43,0,0,1-5.1,6.88A15.9,15.9,0,0,0,280,1048c3.78-3.89,7.45-10.33,9.67-17l2.26.72c-.11.26-.36.37-.76.37a61.45,61.45,0,0,1-3.53,7.93l.91.25c-.08.22-.22.37-.66.4v23.68h-1.74Zm28.37-4H302.4V1045h11.28v1.67H302.4v6.47h11.75v1.71H302.4v9.5h-1.78V1038.7h-3.9a40.28,40.28,0,0,1-5.27,8.47c-.33-.32-.95-.87-1.35-1.2,2.95-3.38,5.9-9.13,7.68-14.77l2.36.73c-.1.26-.36.37-.8.37-.54,1.56-1.16,3.12-1.82,4.69h17Z"/><path d="M282.43,1115.22v-15.75h12.91v15.39H293.6v-1.64h-9.46v2Zm11.17-14h-9.46v10.26h9.46Zm13.35-18.3v12.37H288.29v-12.37Zm-1.79,10.66v-8.95H290v8.95Zm-5.56,5.89h13.31v15.46h-1.74v-1.71h-9.86v2H299.6Zm1.71,12h9.86v-10.26h-9.86Z"/><path d="M307.89,1147.77h-5v6.3h9.39v1.71h-9.39v7.09c0,1.09.26,1.31,1.71,1.31h5.06c1.31,0,1.49-.73,1.64-5a4.19,4.19,0,0,0,1.63.76c-.18,4.65-.73,5.89-3.13,5.89h-5.34c-2.62,0-3.35-.54-3.35-3v-7.09h-7.75c-.51,4.07-2.62,7.89-10.11,10.58a7.42,7.42,0,0,0-1.17-1.42c6.92-2.36,8.92-5.71,9.46-9.16h-8.8v-1.71h8.95c0-.33,0-.66,0-1v-5.31h-4.43v-1.2a30.65,30.65,0,0,1-5.68,3.49,11.77,11.77,0,0,0-1.16-1.38,26,26,0,0,0,8.07-5.49,40.2,40.2,0,0,0-5-4.33l1.13-1a42.81,42.81,0,0,1,5,4.15,24,24,0,0,0,4.18-6.15H283.56v-1.64h11.31l.29-.15a13.28,13.28,0,0,0,1.27.7c0,.14-.21.25-.32.32a27.34,27.34,0,0,1-8.23,11H307.6a32.16,32.16,0,0,1-9.35-12.87l1.53-.48a27.3,27.3,0,0,0,2.62,5.06,50.5,50.5,0,0,0,5.31-5l1.75,1.24c-.11.22-.4.22-.66.18a58,58,0,0,1-5.6,4.69,25.6,25.6,0,0,0,2.87,3.42,50.87,50.87,0,0,0,6-5.27l1.74,1.23c-.11.22-.4.22-.65.19a58.41,58.41,0,0,1-6,4.87,24,24,0,0,0,7.64,4.84,9.71,9.71,0,0,0-1.24,1.49,25.14,25.14,0,0,1-5.64-3.42Zm-6.8,6.3v-6.3h-7.6v6.3Z"/><path d="M299.13,1200.22a24.06,24.06,0,0,0,3.38,7,61.21,61.21,0,0,0,8-5.53l1.78,1.24a.77.77,0,0,1-.69.18,69.78,69.78,0,0,1-8.22,5.27,21.38,21.38,0,0,0,11.2,7.24,7.43,7.43,0,0,0-1.16,1.57c-8.15-2.55-13.32-8.3-15.94-16.77a35,35,0,0,1-6.69,4.91l.62.11c0,.18-.22.36-.66.4v8.29c3.42-.54,7.31-1.13,11.1-1.74l.11,1.52c-5.82,1-12.08,2.11-15.94,2.69a.56.56,0,0,1-.43.51l-.95-2.07,4.37-.65v-8.08a46.24,46.24,0,0,1-7.24,3.09,5.73,5.73,0,0,0-1.17-1.45,44.14,44.14,0,0,0,14.77-7.75H281.08v-1.64h15.5v-4.18H285.27v-1.6h11.31v-4H283.05v-1.63h13.53v-3.75l2.4.15c0,.25-.22.39-.65.43v3.17h14v1.63h-14v4H310v1.6H298.33v4.18H314v1.64Z"/><path d="M299.16,1234.44c-.07.26-.33.4-.65.47,3.6,5.1,10.33,10.22,16.15,12.88a10.12,10.12,0,0,0-1.17,1.53c-5.85-2.87-12.51-8-16.18-13.17-3,4.62-9.24,10-15.65,13.28a11.53,11.53,0,0,0-1.05-1.39c6.44-3.2,12.8-8.76,15.75-13.78Zm-16.8,20.37v-1.67h30.55v1.67H295.16l.33.11c-.11.22-.37.33-.77.36a95.05,95.05,0,0,1-4.76,9.35l17.57-.51a57,57,0,0,0-5.86-6l1.46-.84a53,53,0,0,1,8.95,9.82l-1.57,1a28.93,28.93,0,0,0-1.85-2.58c-9.06.4-18.77.8-24.7,1,0,.32-.26.43-.51.5l-.73-2.25,5.27-.11a77.86,77.86,0,0,0,4.88-9.86Zm6.14-8.77h17.83v1.68H288.5Z"/><path class="cls-1" d="M3,1496.6v-66.2H128.86a17.81,17.81,0,0,0,17.81-17.81V1382.9a17.81,17.81,0,0,0-17.81-17.81H3.55v-1.17H147.84v67.64H21.94a17.82,17.82,0,0,0-17.81,17.81v28.25a17.81,17.81,0,0,0,17.81,17.81H147.26v1.17Z"/><path class="cls-1" d="M193.33,1496.6V1363.92H336.27V1496.6Zm19-131.51a17.82,17.82,0,0,0-17.81,17.81v94.72a17.81,17.81,0,0,0,17.81,17.81h105a17.81,17.81,0,0,0,17.81-17.81V1382.9a17.81,17.81,0,0,0-17.81-17.81Z"/><path class="cls-1" d="M423.24,1496V1382.9a17.81,17.81,0,0,0-17.81-17.81h-24v-1.17h43V1496Z"/><path class="cls-1" d="M469.9,1496.6V1363.92H612.83V1496.6Zm19-65.75a17.81,17.81,0,0,0-17.81,17.81v29a17.81,17.81,0,0,0,17.81,17.81h105a17.81,17.81,0,0,0,17.81-17.81v-29a17.81,17.81,0,0,0-17.81-17.81Zm0-65.76a17.81,17.81,0,0,0-17.81,17.81v29a17.81,17.81,0,0,0,17.81,17.81h105a17.81,17.81,0,0,0,17.81-17.81v-29a17.81,17.81,0,0,0-17.81-17.81Z"/><path class="cls-2" d="M10.76,1266.88l79.45-16.94a8.9,8.9,0,0,0,0-17.42l-48.46-10.26.33-1.54L133.14,1240a8.71,8.71,0,0,0,1.84.19,9,9,0,0,0,1.86-.19l82-17.48a8.89,8.89,0,0,0,7-8.71v-5.06a8.9,8.9,0,0,0-8.9-8.9H41.49a9,9,0,0,0-4.2,1.05L4.91,1218.2l-.74-1.39L65,1184.33a8.9,8.9,0,0,0-4.2-16.75H19.94v-96.46H98.5a8.91,8.91,0,0,0,8.37-5.85l6.81-18.71a8.9,8.9,0,0,0-8.36-12H4.45V1033H253.88v1.57H125.94a8.9,8.9,0,0,0-8.36,5.86l-6.82,18.7a8.9,8.9,0,0,0,8.37,11.95H235.81v96.46H101.9a8.92,8.92,0,0,0-4.2,1.05l-24.13,12.89a8.91,8.91,0,0,0,4.2,16.76H227.41v24l-47.65,10.16a8.9,8.9,0,0,0,0,17.42L254,1265.59l-.32,1.53-116.86-24.73a9.1,9.1,0,0,0-3.7,0l-122,26ZM30.42,1136a8.9,8.9,0,0,0-8.91,8.9v12.25a8.91,8.91,0,0,0,8.91,8.91H225.33a8.91,8.91,0,0,0,8.91-8.91v-12.25a8.9,8.9,0,0,0-8.91-8.9Zm0-31.63a8.91,8.91,0,0,0-8.91,8.91v12.24a8.91,8.91,0,0,0,8.91,8.91H225.33a8.91,8.91,0,0,0,8.91-8.91v-12.24a8.91,8.91,0,0,0-8.91-8.91Zm0-31.63a8.91,8.91,0,0,0-8.91,8.91v12.25a8.91,8.91,0,0,0,8.91,8.9H225.33a8.91,8.91,0,0,0,8.91-8.9V1081.6a8.91,8.91,0,0,0-8.91-8.91Z"/></g></g></svg>