<?xml version="1.0" encoding="utf-8"?>
<!-- Generator: Adobe Illustrator 22.1.0, SVG Export Plug-In . SVG Version: 6.00 Build 0)  -->
<svg version="1.1" id="レイヤー_1" xmlns="http://www.w3.org/2000/svg" xmlns:xlink="http://www.w3.org/1999/xlink" x="0px"
	 y="0px" viewBox="0 0 1099.1 544.9" style="enable-background:new 0 0 1099.1 544.9;" xml:space="preserve">
<style type="text/css">
	.st0{fill:none;stroke:#000000;stroke-width:2.36;stroke-miterlimit:10;}
	.st1{fill:none;stroke:#FFFFFF;stroke-width:2.36;stroke-miterlimit:10;}
</style>
<path class="st0" d="M11.1,254.3l0.1-238.1L11.1,254.3L11.1,254.3z M83.7,249.9v-19.5c0.1,10.8,8.8,19.5,19.6,19.5h95.3
	c10.8,0,19.5-8.7,19.6-19.5v15.3c-0.1,1.4-0.1,2.7,0,4.1l0,0L83.7,249.9z M218.3,168.2c-0.1-10.8-8.8-19.5-19.6-19.5h-95.3
	c-10.8,0-19.5,8.7-19.6,19.5v-19.5h114.9c10.8,0,19.6-8.7,19.6-19.5c0.1,10.8,8.8,19.5,19.6,19.5l0,0
	C227.1,148.7,218.3,157.4,218.3,168.2z M218.3,53.2c-0.1-10.8-8.8-19.5-19.6-19.5l0,0c10.8,0,19.6-8.7,19.6-19.5
	c0.1,10.8,8.8,19.5,19.6,19.5l0,0C227.1,33.7,218.3,42.4,218.3,53.2L218.3,53.2z"/>
<path class="st0" d="M10.2,256.9V17H12v239.9H10.2z M82.9,252.5v-103h114.9c10.8,0,19.6-8.8,19.6-19.6l0,0v-74
	c0-10.8-8.8-19.6-19.6-19.6l0,0h-119v-1.8h118.9c10.8,0,19.6-8.8,19.6-19.6l0,0V9.1h1.7v5.7c0,10.8,8.8,19.6,19.6,19.6l0,0h3.5v1.7
	h-3.5c-10.8,0-19.6,8.8-19.6,19.6l0,0v74c0,10.8,8.8,19.6,19.6,19.6l0,0h3.5v1.7h-3.5c-10.8,0-19.6,8.8-19.6,19.6v81.6L82.9,252.5z
	 M104.2,151.2c-10.8,0-19.6,8.8-19.6,19.6V231c0,10.8,8.8,19.6,19.6,19.6h93.5c10.8,0,19.6-8.8,19.6-19.6l0,0v-60.3
	c0-10.8-8.8-19.6-19.6-19.6l0,0L104.2,151.2z"/>
<path class="st0" d="M295.2,244v-76.7h1.7v55.3c0,10.8,8.8,19.6,19.6,19.6l0,0h188.3v1.7L295.2,244L295.2,244z M503,98.7V43.4
	c0-10.8-8.8-19.6-19.6-19.6l0,0H295.2v-1.7h209.6v76.7L503,98.7z"/>
<path class="st0" d="M892.7,244.5V42.9c0-10.8-8.8-19.6-19.6-19.6h-38.8v-1.7h245.1v1.7H914.1c-10.8,0-19.6,8.8-19.6,19.6l0,0v180.2
	c0,10.8,8.8,19.6,19.6,19.6l0,0h147.5v1.7L892.7,244.5L892.7,244.5z"/>
<path class="st0" d="M127.2,544.9v-82.7c0-10.9-8.8-19.6-19.7-19.6c-4.7,0-9.2,1.7-12.8,4.7L1.1,527.5L0,526.2l85.4-73.1
	c8.2-7.1,9.2-19.5,2.1-27.7c-3.7-4.4-9.2-6.9-14.9-6.9H0.3v-1.7h107.3c10.8,0,19.6-8.8,19.6-19.6l0,0v-61.4
	c0-10.8-8.8-19.6-19.6-19.6H0.3v-1.7h107.3c10.8,0,19.6-8.8,19.6-19.6l0,0v-6.6h1.7v6.6c0,10.8,8.8,19.6,19.6,19.6h107.2v1.7H148.6
	c-10.8,0-19.6,8.8-19.6,19.6v61.4c0,10.8,8.8,19.6,19.6,19.6h107.2v1.7h-72.3c-10.8,0-19.6,8.8-19.6,19.6c0,5.7,2.5,11.2,6.9,14.9
	l85.4,73.1l-1.1,1.3l-93.7-80.2c-8.2-7.1-20.7-6.1-27.7,2.2c-3,3.6-4.7,8.1-4.7,12.8v82.7L127.2,544.9L127.2,544.9z"/>
<path class="st0" d="M399.1,544.9v-72.7c0-10.9-8.8-19.6-19.7-19.6c-4.4,0-8.6,1.5-12.1,4.2l-94.4,73.8l-1.1-1.4l80.7-63
	c8.5-6.7,10.1-19,3.4-27.6c-3.7-4.8-9.4-7.6-15.5-7.6h-68.2v-1.7h15.1c10.8,0,19.6-8.8,19.6-19.6l0,0v-62.1c0.3-0.4,0.6-0.8,0.9-1.2
	c0.3,0.4,0.6,0.8,0.9,1.2v62c0,10.9,8.8,19.6,19.6,19.6h51.2c10.8,0,19.6-8.8,19.6-19.6v-74.2c0-10.8-8.8-19.6-19.6-19.6l0,0h-55.4
	c-6.6,0-12.7,3.3-16.3,8.7c-3.6-5.4-9.8-8.7-16.3-8.7h-2.2v-1.7h90.1c10.8,0,19.6-8.8,19.6-19.6v-6.4h1.7v6.3
	c0,10.9,8.8,19.7,19.6,19.7l0,0h90.1v1.7h-1.3c-6.6,0-12.7,3.3-16.3,8.7c-3.7-5.4-9.8-8.7-16.3-8.7h-56.2
	c-10.8,0-19.6,8.8-19.6,19.6v74.2c0,10.8,8.8,19.6,19.6,19.6h52c10.8,0,19.6-8.8,19.6-19.6l0,0v-62c0.3-0.4,0.6-0.8,0.9-1.2
	c0.3,0.4,0.6,0.8,0.9,1.2v62c0,10.8,8.8,19.6,19.6,19.6l0,0h14.2v1.7h-68.2c-10.8,0-19.6,8.8-19.7,19.6c0,6.1,2.8,11.8,7.6,15.5
	l80.7,63l-1.1,1.4l-94.4-73.8c-8.5-6.7-20.9-5.2-27.6,3.4c-2.7,3.5-4.2,7.7-4.2,12.1v72.7L399.1,544.9z"/>
<path class="st0" d="M729.3,462.8c-3.7-3.7-8.7-5.8-13.9-5.8h-38.6c-10.8,0-19.6,8.8-19.6,19.6l0,0v39.5c0,10.8,8.8,19.6,19.6,19.6
	l0,0h35.9v1.7H606.2c-0.1-0.4-0.3-0.8-0.5-1.3l0.5-0.5h29.6c10.8,0,19.6-8.8,19.6-19.7v-39.5c0-10.8-8.8-19.6-19.6-19.6h-35
	c-9.4,0-17.5,6.6-19.3,15.9l-9,45.7c-0.7,3.8-0.4,7.7,1.1,11.2c-2.2,2.2-3.9,4.9-4.8,7.9l-1.7-0.4l15.6-79.5
	c0.2-1.2,0.4-2.5,0.4-3.8V287.3h235V345h-21.8c-10.8,0-19.6,8.8-19.6,19.6l0,0v15c0,10.8,8.8,19.6,19.6,19.6l0,0H818v1.7h-21.7
	c-10.8,0-19.6,8.8-19.6,19.6v15c0,10.8,8.8,19.6,19.6,19.6l0,0H818v1.7c-8.2,6.4-10,18.1-4.1,26.7l-16.8,16.8
	c-7.7,7.7-7.7,20.1,0,27.8l16.2,16.2l-1.2,1.2L729.3,462.8z M773.4,457c-10.8,0-19.6,8.8-19.6,19.6c0,5.2,2.1,10.2,5.8,13.9l8.7,8.7
	c7.7,7.7,20.1,7.7,27.7,0l0,0l8.7-8.7c7.7-7.7,7.7-20.1,0-27.8c-3.7-3.7-8.7-5.7-13.8-5.8L773.4,457L773.4,457z M723.9,454.9
	c1.2,0.2,2.5,0.4,3.7,0.4h27.7c10.8,0,19.6-8.8,19.6-19.6l0,0v-15c0-10.8-8.8-19.6-19.6-19.6l0,0h-70.1c-10.8,0-19.6,8.8-19.6,19.6
	v15c0,10.8,8.8,19.6,19.6,19.6l0,0h34.9C721.4,455.3,722.7,455.2,723.9,454.9L723.9,454.9L723.9,454.9z M604.5,401
	c-10.8,0-19.6,8.8-19.7,19.6l0,0v15c0,10.8,8.8,19.6,19.6,19.6l0,0h39.8c10.8,0,19.6-8.8,19.6-19.6l0,0v-15
	c0-10.8-8.8-19.6-19.6-19.6l0,0H604.5z M685.2,345c-10.8,0-19.6,8.8-19.6,19.6l0,0v15c0,10.8,8.8,19.6,19.6,19.6l0,0h70.1
	c10.8,0,19.6-8.8,19.6-19.6l0,0v-15c0-10.8-8.8-19.6-19.6-19.6l0,0H685.2z M604.5,345c-10.8,0-19.6,8.8-19.7,19.6l0,0v15
	c0,10.8,8.8,19.6,19.6,19.6l0,0h39.8c10.8,0,19.6-8.8,19.6-19.6l0,0v-15c0-10.8-8.8-19.6-19.6-19.6l0,0H604.5z M604.5,289
	c-10.8,0-19.6,8.8-19.7,19.6v15c0,10.8,8.8,19.6,19.6,19.6l0,0h192.2c10.8,0,19.6-8.8,19.6-19.6l0,0v-15c0-10.8-8.8-19.6-19.6-19.6
	l0,0H604.5z"/>
<path class="st0" d="M645,255.3v-57.4h1.7v36c0,10.8,8.8,19.6,19.6,19.6l0,0H787v1.7H645V255.3z M570.1,255.3V62.1
	c0-10.8-8.8-19.6-19.6-19.6h-6.3v-1.7h6.3c10.8,0,19.6-8.8,19.6-19.6l0,0V10.8h1.7V21c0,10.8,8.8,19.6,19.6,19.6l0,0h132.4
	c0.4,0.3,0.8,0.6,1.3,0.9c-0.4,0.3-0.8,0.6-1.3,0.9H591.5c-10.8,0-19.6,8.8-19.6,19.6l0,0v193.2h-1.8V255.3z M641.8,121.6v-1.7
	h145.3v1.7H641.8z M746.1,41.4l11.8-7.8c5.5-3.6,8.7-9.8,8.7-16.3V14h20.5l-11.8,7.8c-5.5,3.6-8.7,9.8-8.7,16.3v3.2h-20.5V41.4z"/>
<path d="M829.5,1046c-0.1,0.2-0.4,0.3-0.8,0.3c-2.4,5.6-5.9,10.6-10.3,14.7c-0.5-0.4-1-0.8-1.5-1.2c4.4-4.1,7.9-9.1,10.1-14.7
	L829.5,1046z M833.3,1058c-0.2,0.3-0.5,0.4-0.8,0.4c-2.1,5.2-4.5,10.3-7.1,15.3c5.5-0.2,12.2-0.4,18.6-0.7c-1.9-2.6-4.1-5.4-6.1-7.7
	l1.6-0.8c3.5,3.8,6.6,7.8,9.3,12.2l-1.7,1c-0.6-1.1-1.3-2.2-2-3.2c-9.4,0.5-19.4,0.9-25.5,1.1c0,0.3-0.2,0.4-0.5,0.5l-0.8-2.3
	c1.5,0,3.2-0.1,5.2-0.1c2.9-5.3,5.4-10.8,7.4-16.5L833.3,1058z M839.3,1045.1c2.9,5.4,6.6,10.3,11,14.5c-0.6,0.4-1,0.9-1.5,1.5
	c-4.3-4.6-8-9.7-11.1-15.2L839.3,1045.1z"/>
<path d="M820.4,1123.8h32.9v1.7h-32.9V1123.8z M852.3,1101.3v1.8h-30.6v-1.8h14.1v-7.7l2.5,0.2c0,0.2-0.2,0.4-0.7,0.4v7.1H852.3z
	 M828.4,1105.3c2,5.1,3.2,10.4,3.6,15.8c-0.6,0.1-1.2,0.2-1.8,0.3c-0.4-5.4-1.6-10.7-3.5-15.7L828.4,1105.3z M847.7,1105.6
	c-0.2,0.3-0.5,0.5-0.8,0.5c-1.3,5.6-2.9,11.1-4.9,16.5l-1.6-0.4c2-5.6,3.5-11.3,4.6-17.1L847.7,1105.6z"/>
<path d="M823.7,1176.1c-1.2-2.6-1.6-7.7-1.6-12.4c0.1-5.8,0.8-11.5,2-17.2l2.8,0.6c-0.1,0.4-0.5,0.7-0.9,0.6c-1.3,5.2-1.9,10.6-2,16
	c-0.1,2.4,0,4.9,0.4,7.3c0.9-2.5,2.5-6.1,3.3-8l1.4,1c-1.2,2.7-3.9,8.5-3.9,10.1c0,0.6,0.2,1.2,0.4,1.8L823.7,1176.1z M832.8,1155
	c3.2,0,6.4,0,9.6-0.1c-0.1-3.2-0.2-6-0.3-8.7l2.9,0.1c0,0.4-0.4,0.6-0.9,0.8c0,2.3,0.1,4.8,0.2,7.7c2.5-0.2,5-0.7,7.5-1.5l0.3,1.8
	c-2.5,0.8-5,1.3-7.6,1.4c0.1,4.3,0.4,8.9,0.5,11.2c2.8,1.2,5.4,2.8,7.6,4.8l-1.1,1.7c-1.9-1.8-4.1-3.3-6.5-4.4c0.1,3.4-0.4,7-5.8,7
	c-4.2,0-7.1-1.9-7.1-5.1c0-3.6,3.8-5.1,7.1-5.1c1.3,0,2.6,0.2,3.9,0.6l-0.5-10.4c-1.2,0.1-2.8,0.1-3.9,0.1H833v-1.9H832.8z
	 M843,1168.9c-1.3-0.5-2.6-0.7-4-0.7c-2.4,0-5.3,0.8-5.3,3.4c0,2.2,2.4,3.4,5.3,3.4s4-1.4,4-4.7C843.1,1170,843.1,1169.3,843,1168.9
	z"/>
<path d="M989.4,903c-3.7,0.6-7.4,0.9-11.2,0.9c-2.3,0.1-4.6-0.1-6.9-0.5c-4.3-0.9-6.2-3.6-6.2-6.8c0-2.7,1.5-5.5,3.8-7.8l1.5,0.9
	c-2,1.8-3.2,4.3-3.4,6.9c0,2.3,1.5,4.3,4.8,5c2,0.3,4,0.5,6,0.4c3.8,0,7.6-0.3,11.3-1L989.4,903z M973.6,884.9
	c2.2-1.7,4.6-3.3,7.1-4.6l0,0c-3.1,0.4-9.9,0.5-14.2,0.5V879c4,0.1,11.2-0.1,14.6-0.4c2-0.1,4-0.4,6-0.8l0.3,1.9
	c-5.2,0.7-11.5,5.7-12.4,6.4L973.6,884.9z"/>
<path d="M973.7,925.2c-0.2,0.4-0.6,0.7-1.1,0.7c-0.2,1.7-0.6,3.7-0.9,6.1c3.7-0.2,7.3-0.9,10.8-2.1l0.5,1.8c-3.8,1.2-7.7,2-11.6,2.2
	c-1.5,8.6-3.8,16.9-6.8,23l-1.9-0.7c3-5.9,5.2-13.6,6.7-22.2c-0.7,0-1.4,0-2,0h-4.9v-1.8c0.6,0,1.3,0,2.2,0c0.6,0,4,0,5,0
	c0.4-2.4,0.7-5,1-7.2L973.7,925.2z M992.7,956c-1.5,0.1-3,0.2-4.6,0.2c-2.6,0.1-5.1-0.2-7.6-0.8c-2.2-0.5-3.8-2.5-3.8-4.8
	c0.1-2,0.9-3.8,2.3-5.3l1.5,0.8c-1.1,1.2-1.8,2.7-2,4.3c0,3.1,3.2,3.9,9.2,3.9c1.6,0,3.3-0.1,4.9-0.3L992.7,956z M991.6,939
	c-4.3-0.1-8.7,0.4-12.8,1.7l-0.5-1.6c4.3-1.3,8.8-1.9,13.3-1.9V939z M988.8,932.3c-1.4-1.9-3.1-3.6-5-5l1-0.9c1.9,1.4,3.7,3.1,5.2,5
	L988.8,932.3z M993.4,929.8c-1.5-1.9-3.2-3.6-5.1-5l1-0.9c1.9,1.4,3.7,3.1,5.1,5L993.4,929.8z"/>
<path d="M962.2,980.2c1.1,0,2.3-0.1,3.4-0.2c2.9-0.2,22.2-1.6,26.4-1.6v2c-0.5,0-1-0.1-1.5-0.1c-2.1,0-4.2,0.6-5.9,1.7
	c-5.9,3.5-11.3,9.6-11.3,14.5c0,5.4,3.5,8.7,12.9,10l-0.8,1.8c-10.4-1.5-14.1-5.2-14.1-11.8c0-5.4,5.4-11.8,12.5-16.1
	c-3.8,0.2-15.3,1.1-20.5,1.6c-0.2,0.3-0.4,0.5-0.8,0.5L962.2,980.2z"/>
<path d="M993.6,1043.3h-13.9c3.8,5.4,8.9,9.7,14.8,12.5c-0.5,0.4-0.9,0.9-1.3,1.5c-5.9-3.2-11-7.7-14.9-13.2v15.6h-1.8v-15.3
	c-3.8,5.5-8.8,9.9-14.6,13.1c-0.4-0.5-0.8-1-1.3-1.5c5.9-2.9,10.9-7.2,14.6-12.5h-13.7v-1.8h15.1v-7.4h-12.5v-1.8h12.5v-6.3l2.5,0.2
	c0,0.2-0.2,0.4-0.7,0.4v5.7h12.9v1.8h-12.9v7.4h15.3L993.6,1043.3L993.6,1043.3z"/>
<path d="M993.8,1095.2h-13.9c3.8,5.1,8.8,9.3,14.6,12c-0.5,0.5-0.9,1-1.3,1.5c-6-3.1-11.1-7.6-15-13.1v14.8h-1.8v-14.6
	c-3.9,5.3-8.9,9.7-14.7,12.8c-0.4-0.6-0.8-1.1-1.3-1.5c5.7-2.7,10.7-6.9,14.4-12h-13.7v-1.7h15.4v-10.1h-13.6v-1.8h13.6v-4.7
	l2.4,0.2c0,0.2-0.2,0.4-0.6,0.4v4.1h13.9v1.8h-13.9v10.1h15.5L993.8,1095.2z M969.8,1092.7c-0.8-2.6-2.1-5.1-3.6-7.3l1.6-0.6
	c1.6,2.2,2.8,4.7,3.7,7.2L969.8,1092.7z M989.6,1085.4c-0.2,0.2-0.5,0.3-0.7,0.3c-1.2,2.5-2.6,4.9-4.2,7.2l-1.5-0.7
	c1.6-2.4,3-5,4.1-7.7L989.6,1085.4z"/>
<path d="M993.6,1140.7H979c2.4,9.1,7.3,16.2,15.1,19.1c-0.5,0.5-1,1-1.3,1.7c-7.9-3.3-12.7-10.4-15.4-19.8
	c-1.5,7.6-5.4,15.6-15.4,19.8c-0.4-0.5-0.8-1-1.3-1.4c9.8-4,13.6-11.8,15-19.4h-14.4v-1.8H976c0.5-3.6,0.7-7.3,0.6-11l2.6,0.1
	c0,0.3-0.2,0.5-0.7,0.6c0,3.4-0.2,6.9-0.5,10.3h15.7L993.6,1140.7L993.6,1140.7z"/>
<path d="M993.7,1200.4v1.7h-15.5v7.9c0,1.3-0.4,1.9-1.5,2.2c-2.2,0.3-4.4,0.4-6.6,0.3c-0.2-0.6-0.5-1.2-0.8-1.8c1.6,0,2.9,0.1,4,0.1
	c3,0,3.2,0,3.2-0.8v-7.9h-15.2v-1.7h15.2v-3.4l1.5,0.1c2.3-1,4.4-2.3,6.3-3.9h-17.1v-1.6h19.1l0.4-0.1l1.4,1
	c-0.1,0.1-0.3,0.2-0.4,0.2c-2.8,2.4-5.9,4.4-9.3,5.9v1.9L993.7,1200.4z M963.9,1186.8v6.1h-1.7v-7.8h6c-1-1.8-2.1-3.6-3.5-5.1
	l1.5-0.7c1.5,1.6,2.7,3.4,3.7,5.3l-1,0.5h8.4c-0.7-2.1-1.8-4.1-3-5.9l1.5-0.6c1.3,1.8,2.4,3.8,3.1,5.9l-1.3,0.5h6.9
	c1.7-1.9,3.2-4,4.5-6.1c0.7,0.3,1.4,0.6,2.1,1c-0.1,0.2-0.4,0.3-0.7,0.2c-1.2,1.7-2.5,3.3-3.9,4.9h6.3v7.8h-1.7v-6.1L963.9,1186.8
	L963.9,1186.8z"/>
<path d="M777,1051.2c0,3.2-0.6,7.1-2.1,9.4c-0.4-0.3-0.9-0.5-1.4-0.8c1.3-2.1,1.9-5.8,2-8.9L777,1051.2z M779,1077.5v-33.6l2.4,0.2
	c0,0.2-0.2,0.4-0.6,0.4v33H779z M784.4,1055.5c-0.7-1.9-1.5-3.7-2.5-5.4l1.3-0.7c1,1.6,1.9,3.3,2.6,5.1L784.4,1055.5z M796.6,1056.3
	h10.5v1.6h-22.5v-1.6h10.1v-3.1h-7.4v-1.5h7.4v-2.8h-8.8v-1.5h8.8v-3.5l2.5,0.2c0,0.2-0.2,0.4-0.7,0.4v2.9h9.3v1.5h-9.3v2.8h7.8v1.5
	h-7.8L796.6,1056.3z M803.7,1060.7v14.8c0,2.1-1.1,2.1-5.6,2.1c-0.2-0.5-0.3-1.1-0.6-1.6c1,0,1.8,0,2.4,0c1.9,0,2,0,2-0.6v-3.8
	h-12.3v6h-1.8v-16.9H803.7z M802,1062.2h-12.3v3.1H802V1062.2z M789.7,1070.1H802v-3.3h-12.3V1070.1z"/>
<path d="M786.4,1099.1v4.6h7.7v1.7h-16.9v-1.7h7.5v-4.6h-6.1v-1.6h6.1v-3.9l2.3,0.2c0,0.2-0.2,0.4-0.6,0.4v3.3h6.1v1.6H786.4z
	 M787.4,1111.5c0.9-1.8,1.7-3.7,2.4-5.7l2,0.8c-0.1,0.2-0.3,0.3-0.7,0.3c-0.7,1.7-1.5,3.3-2.4,4.9h4.7v1.6h-7v4.7h6.5v1.6h-6.5v7.6
	h-1.7v-7.6h-6.5v-1.6h6.5v-4.7h-7.1v-1.6H788L787.4,1111.5z M781.6,1111.3c-0.4-1.8-1-3.5-1.8-5.1l1.5-0.4c0.8,1.6,1.4,3.3,1.8,5
	L781.6,1111.3z M808.1,1109.3l1.1,0.5c0,0.1-0.1,0.3-0.2,0.4c-0.7,3.9-2.1,7.6-4.3,10.9c1.6,1.9,3.6,3.5,5.9,4.6
	c-0.5,0.4-1,1-1.4,1.5c-2.2-1.2-4.1-2.8-5.6-4.6c-1.3,1.7-2.9,3.2-4.7,4.3c-0.4-0.4-0.8-0.8-1.2-1.2c1.9-1.2,3.5-2.8,4.8-4.6
	c-2-2.7-3.5-5.8-4.4-9l1.5-0.4c0.9,2.8,2.3,5.5,4,7.9c1.6-2.7,2.8-5.6,3.5-8.6h-10.2v16.3h-1.7v-31.9H809v9.4c0,1-0.2,1.6-1,1.9
	s-1.6,0.3-4.9,0.3c-0.1-0.6-0.3-1.1-0.6-1.6c1,0,2,0,2.7,0c2.1,0,2.1,0,2.1-0.6v-7.7H797v12.3h11L808.1,1109.3z"/>
<path d="M808.3,1159.3H796l0.6,0.2c0,0.2-0.3,0.4-0.7,0.4c-1,6.9-4,13.5-11.4,17.2c-0.4-0.5-0.9-0.9-1.4-1.3
	c7.2-3.6,9.9-9.5,10.8-16.4h-14.3v-1.8h28.7L808.3,1159.3L808.3,1159.3z M803,1149.3h-20.2v-1.8H803V1149.3z M803.6,1144.6
	c1.6,1.8,2.9,3.8,4,6l-1.2,0.8c-1.1-2.1-2.4-4.1-4-5.9L803.6,1144.6z M807.6,1143.2c1.6,1.8,3,3.8,4.1,5.9l-1.3,0.7
	c-1.1-2.1-2.4-4.1-4-5.8L807.6,1143.2z"/>
<path d="M950.2,884.8h-8v2.8c0,6.8-2,13.9-11.7,18.3c-0.4-0.5-0.9-1-1.4-1.4c9.6-4.1,11.2-10.9,11.2-16.9v-2.8h-12.6v9.4h-1.8v-9.3
	h-7.4V883h7.4v-8.1l2.7,0.2c0,0.3-0.3,0.6-0.9,0.7v7.3h12.5v-8.6l2.7,0.2c0,0.3-0.3,0.6-0.8,0.6v7.8h8L950.2,884.8z M944.4,875.7
	c1.7,1.6,3.2,3.5,4.5,5.5l-1.1,0.8c-1.3-2-2.8-3.8-4.5-5.4L944.4,875.7z M948,872.7c1.8,1.6,3.3,3.4,4.5,5.5l-1.1,0.8
	c-1.2-2-2.8-3.8-4.5-5.4L948,872.7z"/>
<path d="M948.2,927.2c-0.1,0.2-0.4,0.3-0.6,0.3c-0.1,0-0.3,0-0.4-0.1c-3.3,3.2-6.8,6.1-10.5,8.8l0.7,0.4c0,0.2-0.3,0.4-0.6,0.4v19.7
	h-1.9v-19.2c-4.6,3.2-9.4,6.1-14.5,8.6c-0.3-0.5-0.7-1-1.1-1.5c10.1-4.7,21-12.6,26.9-19L948.2,927.2z"/>
<path d="M921.7,979.2c3.9,1.1,7.5,2.8,10.9,5l-1,1.6c-3.3-2.1-6.9-3.8-10.7-5L921.7,979.2z M921.9,1004.7
	c13.1-4.1,21.8-11.4,26.2-21.5c0.5,0.4,1.1,0.8,1.7,1.1c-4.5,10-13.5,17.8-25.9,21.8c-0.1,0.3-0.2,0.6-0.5,0.8L921.9,1004.7z"/>
<path d="M946.7,1032.2v24.4h-1.9v-2h-23.5v-1.8h23.5V1034h-23.1v-1.8H946.7z"/>
<path d="M933.4,1078.3l2.9,0.3c0,0.4-0.4,0.6-1,0.7v29.8h-2L933.4,1078.3z"/>
<path d="M943.9,1132.5c-0.1,0.2-0.2,0.3-0.4,0.3c-1.9,4.5-4.4,8.8-7.5,12.7c4.9,3.9,9.5,8.1,13.7,12.7l-1.6,1.3
	c-4.1-4.5-8.6-8.7-13.4-12.6c-3.1,3.9-8.9,9.6-14.4,12.6c-0.4-0.5-0.8-1-1.3-1.5c10.4-5.7,18.5-16.6,21.9-24.6h-18.4v-1.8h19.4
	l0.4-0.2L943.9,1132.5z"/>
<path d="M926.6,1185.8c2-2.7,5.2-4.2,8.6-4.1c4.9,0,7.6,3.5,7.6,7.2c0,6-4.5,9.7-11.6,16.3l-2.5,2.2v0.1h14.9v1.9h-18.2v-1.4
	l2.9-2.6c7.9-7.2,12.3-10.9,12.3-16.1c0.1-3-2.2-5.5-5.2-5.6c-0.2,0-0.3,0-0.5,0c-2.9,0-5,1.4-7,3.6L926.6,1185.8z"/>
<path d="M985.3,1253.4v1.7h-14v8.6h-1.8v-8.6h-17.4v-1.7h6.2v-10.2h11.2v-6.6h-9.8c-1.6,2.8-3.6,5.3-6,7.5c-0.4-0.4-0.9-0.8-1.5-1.1
	c3.5-3,6.8-8,8.7-13.2l2.3,0.8c-0.1,0.2-0.4,0.4-0.8,0.3c-0.5,1.4-1.2,2.7-1.9,4h23v1.7h-12.4v6.5h11.5v1.7h-11.5v8.4h14.2V1253.4z
	 M960.1,1253.4h9.5v-8.4h-9.4L960.1,1253.4z"/>
<path d="M951.8,1307c2.9-1.5,7.5-3.9,11.8-6.3l0.5,1.6c-3.9,2.3-8.2,4.7-10.8,6.1c0,0.2-0.1,0.5-0.3,0.6L951.8,1307z M953.2,1283.9
	c3.1,1.1,6,2.4,8.8,4.1l-1,1.6c-2.7-1.7-5.6-3.2-8.7-4.3L953.2,1283.9z M974.2,1289.6c-0.1,0.2-0.4,0.4-0.7,0.4v4.4
	c0,2.8,1.5,14,12.2,18.7c-0.4,0.4-0.9,1.2-1.2,1.6c-6.4-3.1-10.8-9.1-11.9-16.1l0,0c-0.5,3.6-3.6,12-13.4,16.1
	c-0.3-0.5-0.7-1-1.1-1.4c12.1-4.8,13.6-15.7,13.6-18.8v-4.8h-5c-1.1,3.2-2.6,6.1-4.6,8.8c-0.5-0.4-1-0.7-1.5-0.9
	c2.9-3.8,5.3-10.1,6.8-16.5l2.4,0.6c-0.1,0.3-0.3,0.4-0.8,0.4c-0.5,2-1,3.9-1.7,5.9h15.8l0.3-0.1l1.4,0.9c0,0.1-0.3,0.2-0.4,0.3
	c-0.8,3.3-1.8,6.5-3.2,9.5c-0.5-0.3-1-0.5-1.5-0.7c1.2-2.6,2.1-5.3,2.7-8.1L974.2,1289.6z"/>
<path d="M952.3,1338.2H985v1.7h-32.7V1338.2z M966.3,1343.6L966.3,1343.6h0.8v19.5c0,1.1-0.3,1.7-1.1,2c-1.7,0.3-3.4,0.4-5.1,0.3
	c-0.1-0.6-0.4-1.1-0.7-1.6c0.9,0,1.8,0,2.5,0c2.7,0,2.7,0,2.7-0.7v-5.9h-8.9v8.4h-1.7v-22L966.3,1343.6z M965.4,1345.2h-8.9v4.4h8.9
	V1345.2z M956.5,1355.7h8.9v-4.5h-8.9V1355.7z M959.7,1331.9c1.7,1.6,3.2,3.3,4.5,5.2l-1.6,0.8c-1.3-1.9-2.8-3.7-4.4-5.3
	L959.7,1331.9z M971.7,1359.1v-15.2l2.4,0.2c0,0.2-0.2,0.4-0.6,0.4v14.6H971.7z M973.3,1337.3c1.6-1.7,3-3.6,4.2-5.5l2.3,0.9
	c-0.2,0.2-0.5,0.3-0.7,0.3c-1.3,1.8-2.7,3.4-4.2,5.1L973.3,1337.3z M982.1,1363.1c0,1.3-0.3,1.9-1.3,2.2s-2.8,0.4-5.7,0.3
	c-0.2-0.6-0.4-1.2-0.7-1.8c1.3,0,2.4,0.1,3.3,0.1c2.4,0,2.6,0,2.6-0.8v-20.3l2.4,0.1c0,0.2-0.2,0.4-0.7,0.4v19.8H982.1z"/>
<path d="M970,1405.6v1.6h-18.2v-1.6h3.8v-15.9h-3.3v-1.6h3.3v-4.8l2.3,0.2c0,0.2-0.2,0.4-0.6,0.4v4.2h8v-4.8l2.3,0.2
	c0,0.2-0.2,0.4-0.6,0.4v4.2h2.9v1.6H967v15.9L970,1405.6z M959.4,1409.1c-0.1,0.3-0.3,0.3-0.7,0.3c-1.3,2.6-3.1,5-5.3,7
	c-0.4-0.4-0.8-0.7-1.3-1c2.2-1.9,3.9-4.3,5.1-7L959.4,1409.1z M965.2,1389.7h-8v4.1h8V1389.7z M957.2,1395.3v4.2h8v-4.2H957.2z
	 M957.2,1401.1v4.6h8v-4.6H957.2z M964.5,1408.4c1.5,1.7,2.7,3.6,3.8,5.6c-0.3,0.1-0.5,0.3-1.5,0.9c-1-2-2.3-3.9-3.7-5.7
	L964.5,1408.4z M984.2,1384.7v29.2c0,2.5-0.8,2.6-6.5,2.5c-0.2-0.6-0.4-1.2-0.7-1.8c1.3,0.1,2.5,0.1,3.4,0.1c1.8,0,2,0,2-0.8v-10.2
	h-9.1c-0.4,4.5-1.6,9.3-4.4,13c-0.4-0.4-0.9-0.8-1.4-1.1c3.9-5,4.3-12,4.3-17.5v-13.4L984.2,1384.7L984.2,1384.7z M973.6,1398.1
	c0,1.2,0,2.5-0.1,3.9h9v-7h-8.9V1398.1z M982.5,1386.4h-8.9v6.9h8.9V1386.4z"/>
<path d="M952.7,1444.1c2.4,0.9,4.7,2.2,6.7,3.8l-1,1.5c-2-1.6-4.3-3-6.7-4L952.7,1444.1z M952.8,1465.7c2.4-3.9,4.6-8,6.5-12.2
	l1.3,1.1c-1.8,4-3.8,7.8-6,11.6c0.1,0.1,0.1,0.3,0.1,0.4s0,0.3-0.1,0.4L952.8,1465.7z M954.6,1434.1c2.4,1,4.6,2.4,6.6,4.1l-1.1,1.5
	c-2-1.7-4.2-3.2-6.5-4.3L954.6,1434.1z M970.9,1462c-0.1,0.3-0.4,0.3-0.7,0.3c-2.8,2.1-5.9,3.8-9.2,5.1c-0.4-0.5-0.8-0.9-1.2-1.3
	c3.3-1.2,6.3-2.9,9.1-5L970.9,1462z M964.3,1439.6v3.9h-1.7v-5.5h9.9v-4.3l2.4,0.2c0,0.2-0.2,0.4-0.6,0.4v3.7h10.2v5.5h-1.8v-3.9
	L964.3,1439.6z M963.9,1448.1h8.6v-3.3H965v-1.6h17.1v1.6h-7.8v3.3h8.8v12.2H964L963.9,1448.1L963.9,1448.1z M965.6,1449.6v3.8h6.9
	v-3.8H965.6z M965.6,1454.9v3.9h6.9v-3.9H965.6z M981.3,1449.6h-7v3.8h7V1449.6z M981.3,1458.8v-3.9h-7v3.9H981.3z M984.2,1467.4
	c-2.6-2-5.4-3.7-8.3-5.2l1.2-1c2.9,1.5,5.7,3.2,8.3,5.1L984.2,1467.4z"/>
<path d="M952.2,1498.3c2.6-0.9,6.4-2.3,10.2-3.8l0.3,1.4c-3.4,1.4-6.9,2.8-9.1,3.7c0,0.2-0.1,0.4-0.3,0.5L952.2,1498.3z
	 M966.7,1498.9c0,2-0.8,2-5.6,2c-0.1-0.5-0.3-1-0.6-1.5c0.8,0,1.5,0,2.1,0c2.4,0,2.4,0,2.4-0.5v-10.7h-12v-1.6h13.7L966.7,1498.9
	L966.7,1498.9z M959.9,1493.9c-1.4-1.5-3.1-2.8-4.9-3.8l1-1c1.9,0.9,3.6,2.2,5,3.7L959.9,1493.9z M965.9,1503.1
	c0.7-1.2,1.3-2.4,1.8-3.6l2.1,0.7c-0.1,0.2-0.3,0.3-0.7,0.3c-0.4,0.9-0.9,1.8-1.5,2.6h12.5v15.3h-1.8v-1.5H959v1.5h-1.7v-15.3H965.9
	z M978.4,1509.1v-4.5h-19.3v4.5H978.4z M959.1,1515.3h19.4v-4.7h-19.4V1515.3z M979.5,1495.3c-3.6,1.3-7.3,2.8-9.6,3.6
	c0,0.2-0.1,0.5-0.4,0.5l-1-1.8c2.7-0.9,6.7-2.3,10.7-3.8L979.5,1495.3z M983.2,1486.7v12.3c0,1-0.3,1.5-1.1,1.8
	c-1.6,0.3-3.2,0.4-4.8,0.2c-0.1-0.5-0.3-1-0.6-1.5c1,0,1.9,0,2.6,0c2,0,2.1,0,2.1-0.6v-10.7h-12.3v-1.6L983.2,1486.7z M971.6,1489.1
	c1.8,0.9,3.5,2.1,5,3.5l-1.1,1.2c-1.5-1.5-3.1-2.7-5-3.7L971.6,1489.1z"/>
<path d="M962.8,1553.8l-3.6,1.2v11.8c0,2.4-1.3,2.5-6,2.4c-0.2-0.6-0.4-1.2-0.7-1.7c0.9,0,1.7,0,2.3,0c2.6,0,2.6,0,2.6-0.8v-11.1
	l-4.5,1.4c0,0.2-0.2,0.5-0.4,0.5l-0.8-2.1c1.6-0.4,3.5-0.9,5.7-1.6v-8.8H952v-1.7h5.4v-7.8l2.4,0.2c0,0.2-0.2,0.4-0.6,0.4v7.2h4.7
	v1.7h-4.7v8.3l3.4-1L962.8,1553.8z M981.5,1553.5l1.2,0.5c-0.1,0.1-0.2,0.2-0.3,0.3c-1.4,3.6-3.8,6.8-6.9,9.1
	c3.1,2.1,6.7,3.6,10.4,4.2c-0.4,0.4-0.8,1-1.1,1.5c-3.8-0.8-7.5-2.4-10.6-4.7c-3.4,2.2-7.2,3.7-11.2,4.6c-0.2-0.6-0.5-1.1-0.9-1.6
	c3.8-0.7,7.4-2.1,10.7-4.1c-2.4-2.1-4.3-4.8-5.5-7.7l1.5-0.5c1.2,2.8,3.1,5.3,5.4,7.3c2.6-1.9,4.7-4.4,6.1-7.3h-14.9v-1.6h15.9
	L981.5,1553.5z M978.3,1546.4c1.6-2.1,2.9-4.3,4.1-6.7l2.1,0.8c-0.2,0.2-0.4,0.3-0.7,0.2c-1.2,2.1-2.6,4.2-4.1,6.2h5.3v6.1h-1.7
	v-4.5H965v4.5h-1.7v-6.1h16.2L978.3,1546.4z M983.7,1537.1c-0.1,0.1-0.1,0.1-0.6,0.1c-4.4,1.3-12.5,2.3-19.2,2.8
	c-0.1-0.5-0.2-1-0.5-1.4c6.6-0.5,14.7-1.5,18.8-2.9L983.7,1537.1z M967.4,1546.4c-0.5-1.8-1.3-3.5-2.3-5.1l1.4-0.5
	c1.1,1.5,1.9,3.2,2.4,5L967.4,1546.4z M973.4,1546c-0.2-1.9-0.7-3.8-1.6-5.5l1.5-0.4c0.8,1.7,1.4,3.5,1.6,5.4L973.4,1546z"/>
<path d="M984.7,1611h-13.2c3.5,3.1,9.1,5.7,14.1,7c-0.5,0.5-0.8,1-1.2,1.5c-5.2-1.5-11.3-4.8-15-8.4v9h-1.8v-8.8
	c-3.5,3.6-9.6,6.6-14.7,8.1c-0.3-0.5-0.7-1.1-1.2-1.5c5.1-1.2,9.8-3.6,13.9-6.8h-13v-1.6h15.1v-3.4h-11.5v-1.5h11.5v-3.3h-13.4v-1.6
	h8.8c-0.5-1.5-1.2-2.9-2.1-4.2l1.5-0.4h-9.6v-1.6h11.4v-7l2.5,0.2c0,0.3-0.3,0.5-0.8,0.6v6.2h5.4v-7l2.5,0.2c0,0.4-0.3,0.5-0.8,0.6
	v6.2h11.6v1.6h-8.8l1.4,0.4c-0.1,0.2-0.4,0.4-0.7,0.3c-0.7,1.3-1.5,2.6-2.3,3.8h9.2v1.6h-13.8v3.4h12v1.5h-12v3.4H985v1.5H984.7z
	 M957.5,1587c1.4,1.7,2.5,3.6,3.4,5.6l-1.6,0.6c-0.8-2.1-2-4-3.3-5.8L957.5,1587z M972.5,1599.4c0.9-1.4,1.6-2.8,2.3-4.3h-12.3
	c0.9,1.3,1.7,2.7,2.3,4.3l-1.2,0.3h9.7L972.5,1599.4z M982.1,1587.8c-0.1,0.2-0.4,0.3-0.7,0.3c-0.9,1.8-2,3.6-3.2,5.3
	c-0.3-0.1-1.2-0.5-1.4-0.6c1.2-1.8,2.3-3.8,3.2-5.8L982.1,1587.8z"/>
<path d="M964.7,1643.5v1.6h-12.9v-1.6H964.7z M953.4,1650v-1.5h10.3v1.6L953.4,1650z M953.4,1654.9v-1.5h10.3v1.5H953.4z
	 M963.7,1658.3v10.5H955v1.8h-1.6v-12.3H963.7z M963.5,1638.8v1.5h-9.9v-1.5H963.5z M962.1,1659.9H955v7.4h7.1V1659.9z
	 M985.2,1658.5h-7.8c2.1,3.6,4.9,6.7,8.3,9.1c-0.5,0.4-0.9,0.9-1.3,1.4c-3.4-2.7-6.2-6.1-8.3-9.9v11.9h-1.7v-11.6
	c-2.1,3.9-5.2,7.3-9,9.8c-0.3-0.5-0.7-0.9-1.2-1.3c3.8-2.2,6.9-5.5,9-9.3h-7.9v-1.6h9.1v-3.8h-7.6v-14h17v14h-7.7v3.8h9.1
	L985.2,1658.5z M968.4,1640.6v4.7h5.9v-4.7H968.4z M968.4,1646.8v4.8h5.9v-4.7L968.4,1646.8z M982.1,1645.2v-4.7H976v4.7H982.1z
	 M982.1,1651.5v-4.7H976v4.8L982.1,1651.5z"/>
<path d="M961.2,1717.5c3.3,1.6,7.8,2,13,2h11.4c-0.3,0.5-0.6,1-0.7,1.6h-10.7c-8.7,0-14.8-1-18.3-6.5c-0.4,2.7-1.4,5.2-2.9,7.3
	c-0.4-0.4-0.8-0.7-1.2-1c2.3-2.8,3-8.2,3.2-12.7l2.2,0.2c0,0.3-0.2,0.4-0.6,0.4c-0.1,1.2-0.2,2.4-0.3,3.7c0.8,1.6,1.9,3,3.3,4v-10.7
	H952v-1.5h16.7v1.5h-7.4v4.5h6.8v1.5h-6.8L961.2,1717.5z M966.1,1689.9v11.2h-11.7v-11.2H966.1z M964.4,1694.8v-3.4H956v3.4H964.4z
	 M964.4,1699.7v-3.4H956v3.4H964.4z M975,1712.8c-0.1,0.2-0.4,0.2-0.7,0.2c-1.9,2-4.1,3.6-6.5,4.9c-0.3-0.4-0.7-0.8-1.1-1.2
	c2.4-1.1,4.6-2.7,6.3-4.7L975,1712.8z M970,1695.3h4.5c0.4-1,0.7-2.4,1-3.5h-7.2v-1.5h16.8v1.5h-7.9c-0.3,1-0.7,2.4-1.2,3.5h7.2v16
	H970V1695.3z M981.6,1700.1v-3.3h-10v3.3H981.6z M981.6,1704.9v-3.4h-10v3.4H981.6z M981.6,1709.8v-3.4h-10v3.4H981.6z
	 M983.8,1717.8c-1.7-1.8-3.7-3.4-5.7-4.8l1.2-0.8c2.1,1.4,4.1,3,6,4.7L983.8,1717.8z"/>
<path d="M957.3,1751.2c-1.5,2.5-3.2,4.8-5.1,6.9c-0.3-0.5-0.7-1-1.1-1.5c3.8-3.9,7.5-10.3,9.7-17l2.3,0.7c-0.1,0.3-0.4,0.4-0.8,0.4
	c-1,2.7-2.2,5.4-3.5,7.9l0.9,0.2c-0.1,0.2-0.2,0.4-0.7,0.4v23.7h-1.7L957.3,1751.2z M985.7,1747.2h-12.1v6.3h11.3v1.7h-11.3v6.5
	h11.8v1.7h-11.8v9.5h-1.8v-25.7h-3.9c-1.4,3-3.2,5.9-5.3,8.5c-0.3-0.3-1-0.9-1.3-1.2c3-3.4,5.9-9.1,7.7-14.8l2.4,0.7
	c-0.1,0.3-0.4,0.4-0.8,0.4c-0.5,1.6-1.2,3.1-1.8,4.7h17L985.7,1747.2z"/>
<path d="M424.5,1516v-15.8h12.9v15.4h-1.7v-1.6h-9.5v2H424.5z M435.7,1502h-9.5v10.3h9.5V1502z M449,1483.7v12.4h-18.7v-12.4H449z
	 M447.2,1494.3v-8.9H432v8.9H447.2z M441.7,1500.2H455v15.5h-1.7v-1.7h-9.9v2h-1.7L441.7,1500.2L441.7,1500.2z M443.4,1512.2h9.9
	V1502h-9.9V1512.2z"/>
<path d="M650.2,1529.1h-5v6.3h9.4v1.7h-9.4v7.1c0,1.1,0.3,1.3,1.7,1.3h5.1c1.3,0,1.5-0.7,1.6-5c0.5,0.4,1,0.6,1.6,0.8
	c-0.2,4.7-0.7,5.9-3.1,5.9h-5.3c-2.6,0-3.3-0.5-3.3-3v-7.1h-7.8c-0.5,4.1-2.6,7.9-10.1,10.6c-0.3-0.5-0.7-1-1.2-1.4
	c6.9-2.4,8.9-5.7,9.5-9.2h-8.8v-1.7h9c0-0.3,0-0.7,0-1v-5.3h-4.4v-1.2c-1.8,1.4-3.7,2.5-5.7,3.5c-0.4-0.5-0.7-1-1.2-1.4
	c3-1.3,5.8-3.2,8.1-5.5c-1.5-1.6-3.2-3-5-4.3l1.1-1c1.8,1.3,3.4,2.6,5,4.2c1.7-1.8,3.1-3.9,4.2-6.2H626v-1.6h11.3l0.3-0.2
	c0.4,0.3,0.8,0.5,1.3,0.7c0,0.1-0.2,0.2-0.3,0.3c-1.8,4.3-4.6,8.1-8.2,11h19.7c-4.1-3.4-7.4-7.9-9.4-12.9l1.5-0.5
	c0.7,1.8,1.6,3.5,2.6,5.1c1.9-1.5,3.7-3.2,5.3-5l1.8,1.2c-0.1,0.2-0.4,0.2-0.7,0.2c-1.8,1.7-3.6,3.2-5.6,4.7
	c0.9,1.2,1.8,2.4,2.9,3.4c2.1-1.6,4.1-3.4,6-5.3l1.7,1.2c-0.1,0.2-0.4,0.2-0.7,0.2c-1.9,1.8-3.9,3.4-6,4.9c2.2,2.1,4.8,3.7,7.6,4.8
	c-0.5,0.5-0.9,1-1.2,1.5c-2-0.9-3.9-2-5.6-3.4L650.2,1529.1z M643.4,1535.4v-6.3h-7.6v6.3H643.4z"/>
<path d="M641.5,1581.6c0.7,2.5,1.9,4.9,3.4,7c2.8-1.6,5.5-3.5,8-5.5l1.8,1.2c-0.2,0.2-0.4,0.2-0.7,0.2c-2.6,1.9-5.4,3.7-8.2,5.3
	c2.9,3.5,6.8,6.1,11.2,7.2c-0.5,0.5-0.8,1-1.2,1.6c-8.2-2.6-13.3-8.3-15.9-16.8c-2,1.9-4.3,3.5-6.7,4.9l0.6,0.1
	c0,0.2-0.2,0.4-0.7,0.4v8.3c3.4-0.5,7.3-1.1,11.1-1.7l0.1,1.5c-5.8,1-12.1,2.1-15.9,2.7c0,0.2-0.2,0.5-0.4,0.5l-1-2.1l4.4-0.7v-8.1
	c-2.3,1.2-4.7,2.3-7.2,3.1c-0.3-0.5-0.7-1-1.2-1.4c5.4-1.6,10.4-4.3,14.8-7.8h-14.3v-1.6H639v-4.2h-11.3v-1.6H639v-4h-13.5v-1.6H639
	v-3.8l2.4,0.2c0,0.2-0.2,0.4-0.6,0.4v3.2h14v1.6h-14v4h11.7v1.6h-11.7v4.2h15.7v1.6L641.5,1581.6z"/>
<path d="M641.5,1615.8c-0.1,0.3-0.3,0.4-0.7,0.5c3.6,5.1,10.3,10.2,16.2,12.9c-0.4,0.5-0.8,1-1.2,1.5c-5.8-2.9-12.5-8-16.2-13.2
	c-3,4.6-9.2,10-15.6,13.3c-0.3-0.5-0.7-1-1-1.4c6.4-3.2,12.8-8.8,15.8-13.8L641.5,1615.8z M624.7,1636.2v-1.7h30.5v1.7h-17.8
	l0.3,0.1c-0.1,0.2-0.4,0.3-0.8,0.4c-1.4,3.2-3,6.3-4.8,9.3l17.6-0.5c-1.8-2.1-3.8-4.1-5.9-6l1.5-0.8c3.4,2.9,6.4,6.2,9,9.8l-1.6,1
	c-0.6-0.9-1.2-1.8-1.8-2.6c-9.1,0.4-18.8,0.8-24.7,1c0,0.3-0.3,0.4-0.5,0.5l-0.7-2.2l5.3-0.1c1.9-3.2,3.5-6.5,4.9-9.9L624.7,1636.2z
	 M630.8,1627.4h17.8v1.7h-17.8V1627.4z"/>
<path class="st0" d="M345.3,1878v-66.2h125.9c9.8,0,17.8-8,17.8-17.8l0,0v-29.7c0-9.8-8-17.8-17.8-17.8l0,0H345.9v-1.2h144.3v67.6
	H364.3c-9.8,0-17.8,8-17.8,17.8v28.2c0,9.8,8,17.8,17.8,17.8l0,0h125.3v1.2L345.3,1878z"/>
<path class="st0" d="M535.7,1878v-132.7h142.9V1878H535.7z M554.7,1746.4c-9.8,0-17.8,8-17.8,17.8v94.7c0,9.8,8,17.8,17.8,17.8l0,0
	h105c9.8,0,17.8-8,17.8-17.8l0,0v-94.7c0-9.8-8-17.8-17.8-17.8l0,0H554.7z"/>
<path class="st0" d="M765.6,1877.4v-113.1c0-9.8-8-17.8-17.8-17.8l0,0h-24v-1.2h43v132.1H765.6z"/>
<path class="st0" d="M812.2,1878v-132.7h142.9V1878H812.2z M831.2,1812.2c-9.8,0-17.8,8-17.8,17.8l0,0v29c0,9.8,8,17.8,17.8,17.8
	l0,0h105c9.8,0,17.8-8,17.8-17.8l0,0v-29c0-9.8-8-17.8-17.8-17.8l0,0H831.2z M831.2,1746.4c-9.8,0-17.8,8-17.8,17.8l0,0v29
	c0,9.8,8,17.8,17.8,17.8l0,0h105c9.8,0,17.8-8,17.8-17.8l0,0v-29c0-9.8-8-17.8-17.8-17.8l0,0H831.2z"/>
<path class="st1" d="M855.9,532.7l79.5-16.9c4.8-1,7.9-5.7,6.9-10.5c-0.7-3.5-3.4-6.2-6.9-6.9l-48.5-10.3l0.3-1.5l91.1,19.3
	c0.6,0.1,1.2,0.2,1.8,0.2s1.2-0.1,1.9-0.2l82-17.5c4.1-0.9,7-4.5,7-8.7v-5.1c0-4.9-4-8.9-8.9-8.9l0,0H886.6c-1.5,0-2.9,0.4-4.2,1.1
	L850,484l-0.7-1.4l60.8-32.5c4.3-2.3,6-7.7,3.7-12c-1.5-2.9-4.6-4.7-7.9-4.7H865v-96.5h78.6c3.7,0,7.1-2.3,8.4-5.8l6.8-18.7
	c1.7-4.6-0.6-9.7-5.2-11.4c-1-0.4-2.1-0.6-3.1-0.6H849.6v-1.6H1099v1.6H971.1c-3.7,0-7.1,2.3-8.4,5.9l-6.8,18.7
	c-1.7,4.6,0.7,9.7,5.3,11.4c1,0.4,2,0.5,3.1,0.5H1081v96.5H947c-1.5,0-2.9,0.4-4.2,1.1l-24.1,12.9c-4.3,2.3-6,7.7-3.6,12.1
	c1.5,2.9,4.6,4.7,7.8,4.7h149.6v24l-47.7,10.2c-4.8,1-7.9,5.7-6.9,10.5c0.7,3.5,3.4,6.2,6.9,6.9l74.2,15.8l-0.3,1.5L982,508.2
	c-1.2-0.3-2.5-0.3-3.7,0l-122,26L855.9,532.7z M875.6,401.8c-4.9,0-8.9,4-8.9,8.9l0,0v12.2c0,4.9,4,8.9,8.9,8.9l0,0h194.9
	c4.9,0,8.9-4,8.9-8.9l0,0v-12.2c0-4.9-4-8.9-8.9-8.9l0,0H875.6z M875.6,370.2c-4.9,0-8.9,4-8.9,8.9l0,0v12.2c0,4.9,4,8.9,8.9,8.9
	l0,0h194.9c4.9,0,8.9-4,8.9-8.9l0,0v-12.2c0-4.9-4-8.9-8.9-8.9l0,0H875.6z M875.6,338.5c-4.9,0-8.9,4-8.9,8.9l0,0v12.2
	c0,4.9,4,8.9,8.9,8.9h194.9c4.9,0,8.9-4,8.9-8.9v-12.3c0-4.9-4-8.9-8.9-8.9l0,0L875.6,338.5z"/>
</svg>
